Latin-Mizra-Bold.ufo
<glyph name="quotedbl" format="1">
  <advance width="317"/>
  <unicode hex="0022"/>
  <outline>
    <contour>
      <point x="283" y="309" type="line"/>
      <point x="283" y="402"/>
      <point x="284" y="469"/>
      <point x="295" y="549" type="curve"/>
      <point x="252" y="549"/>
      <point x="223" y="544"/>
      <point x="188" y="531" type="curve"/>
      <point x="188" y="376" type="line"/>
      <point x="213" y="354"/>
      <point x="235" y="332"/>
      <point x="254" y="309" type="curve"/>
    </contour>
    <contour>
      <point x="127" y="309" type="line"/>
      <point x="127" y="402"/>
      <point x="128" y="469"/>
      <point x="139" y="549" type="curve"/>
      <point x="96" y="549"/>
      <point x="68" y="544"/>
      <point x="32" y="531" type="curve"/>
      <point x="32" y="376" type="line"/>
      <point x="57" y="354"/>
      <point x="79" y="332"/>
      <point x="98" y="309" type="curve"/>
    </contour>
  </outline>
</glyph>
<glyph name="dollar" format="1">
  <advance width="467"/>
  <unicode hex="0024"/>
  <outline>
    <contour>
      <point x="250" y="-86"/>
      <point x="266" y="-83"/>
      <point x="281" y="-79" type="curve"/>
      <point x="276" y="-62"/>
      <point x="273" y="-31"/>
      <point x="271" y="12" type="curve"/>
      <point x="383" y="23"/>
      <point x="438" y="73"/>
      <point x="438" y="152" type="curve" smooth="yes"/>
      <point x="438" y="316"/>
      <point x="167" y="311"/>
      <point x="167" y="396" type="curve" smooth="yes"/>
      <point x="167" y="418"/>
      <point x="189" y="432"/>
      <point x="207" y="435" type="curve"/>
      <point x="251" y="435"/>
      <point x="319" y="400"/>
      <point x="377" y="355" type="curve"/>
      <point x="400" y="385"/>
      <point x="421" y="448"/>
      <point x="421" y="489" type="curve"/>
      <point x="379" y="503"/>
      <point x="328" y="511"/>
      <point x="272" y="513" type="curve"/>
      <point x="273" y="549"/>
      <point x="275" y="580"/>
      <point x="276" y="606" type="curve"/>
      <point x="259" y="610"/>
      <point x="244" y="613"/>
      <point x="230" y="613" type="curve" smooth="yes"/>
      <point x="216" y="613"/>
      <point x="200" y="610"/>
      <point x="186" y="606" type="curve"/>
      <point x="189" y="587"/>
      <point x="192" y="555"/>
      <point x="194" y="509" type="curve"/>
      <point x="93" y="495"/>
      <point x="32" y="442"/>
      <point x="32" y="371" type="curve" smooth="yes"/>
      <point x="32" y="211"/>
      <point x="303" y="208"/>
      <point x="303" y="130" type="curve" smooth="yes"/>
      <point x="303" y="100"/>
      <point x="271" y="84"/>
      <point x="212" y="84" type="curve" smooth="yes"/>
      <point x="143" y="84"/>
      <point x="80" y="103"/>
      <point x="45" y="135" type="curve"/>
      <point x="33" y="107"/>
      <point x="28" y="82"/>
      <point x="28" y="45" type="curve"/>
      <point x="72" y="26"/>
      <point x="128" y="13"/>
      <point x="192" y="10" type="curve"/>
      <point x="191" y="-24"/>
      <point x="190" y="-55"/>
      <point x="189" y="-79" type="curve"/>
      <point x="207" y="-83"/>
      <point x="222" y="-86"/>
      <point x="236" y="-86" type="curve" smooth="yes"/>
    </contour>
    <contour>
      <point x="231" y="527" type="move" name="top"/>
    </contour>
    <contour>
      <point x="231" y="0" type="move" name="bottom"/>
    </contour>
  </outline>
</glyph>
<glyph name="ampersand" format="1">
  <advance width="574"/>
  <unicode hex="0026"/>
  <outline>
    <contour>
      <point x="262" y="-11"/>
      <point x="313" y="11"/>
      <point x="353" y="43" type="curve"/>
      <point x="412" y="-6" type="line"/>
      <point x="482" y="-6"/>
      <point x="528" y="0"/>
      <point x="573" y="15" type="curve"/>
      <point x="528" y="46"/>
      <point x="478" y="89"/>
      <point x="431" y="135" type="curve"/>
      <point x="467" y="190"/>
      <point x="495" y="250"/>
      <point x="529" y="294" type="curve"/>
      <point x="495" y="294"/>
      <point x="468" y="293"/>
      <point x="415" y="288" type="curve"/>
      <point x="412" y="249"/>
      <point x="403" y="211"/>
      <point x="387" y="179" type="curve"/>
      <point x="304" y="268"/>
      <point x="238" y="360"/>
      <point x="238" y="399" type="curve" smooth="yes"/>
      <point x="238" y="438"/>
      <point x="268" y="465"/>
      <point x="312" y="465" type="curve"/>
      <point x="359" y="442"/>
      <point x="402" y="406"/>
      <point x="435" y="365" type="curve"/>
      <point x="457" y="386"/>
      <point x="481" y="455"/>
      <point x="481" y="499" type="curve"/>
      <point x="436" y="521"/>
      <point x="381" y="533"/>
      <point x="323" y="533" type="curve" smooth="yes"/>
      <point x="187" y="533"/>
      <point x="109" y="480"/>
      <point x="109" y="391" type="curve" smooth="yes"/>
      <point x="109" y="360"/>
      <point x="123" y="321"/>
      <point x="150" y="277" type="curve"/>
      <point x="64" y="246"/>
      <point x="22" y="196"/>
      <point x="22" y="126" type="curve" smooth="yes"/>
      <point x="22" y="44"/>
      <point x="90" y="-11"/>
      <point x="192" y="-11" type="curve" smooth="yes"/>
    </contour>
    <contour>
      <point x="191" y="64"/>
      <point x="157" y="97"/>
      <point x="157" y="147" type="curve" smooth="yes"/>
      <point x="157" y="176"/>
      <point x="168" y="202"/>
      <point x="186" y="221" type="curve"/>
      <point x="218" y="178"/>
      <point x="260" y="132"/>
      <point x="308" y="84" type="curve"/>
      <point x="287" y="71"/>
      <point x="265" y="64"/>
      <point x="240" y="64" type="curve" smooth="yes"/>
    </contour>
  </outline>
</glyph>
<glyph name="comma" format="1">
  <advance width="213"/>
  <unicode hex="002C"/>
  <outline>
    <contour>
      <point x="125" y="-57"/>
      <point x="171" y="23"/>
      <point x="179" y="112" type="curve"/>
      <point x="148" y="144" type="line"/>
      <point x="110" y="144"/>
      <point x="66" y="132"/>
      <point x="35" y="112" type="curve"/>
      <point x="47" y="85"/>
      <point x="53" y="53"/>
      <point x="53" y="17" type="curve" smooth="yes"/>
      <point x="53" y="-23"/>
      <point x="40" y="-62"/>
      <point x="17" y="-89" type="curve"/>
      <point x="46" y="-120" type="line"/>
    </contour>
  </outline>
</glyph>
<glyph name="hyphen" format="1">
  <advance width="406"/>
  <unicode hex="002D"/>
  <outline>
    <contour>
      <point x="81" y="131"/>
      <point x="147" y="140"/>
      <point x="208" y="140" type="curve" smooth="yes"/>
      <point x="260" y="140"/>
      <point x="310" y="139"/>
      <point x="368" y="135" type="curve"/>
      <point x="368" y="184"/>
      <point x="364" y="226"/>
      <point x="350" y="275" type="curve"/>
      <point x="324" y="265"/>
      <point x="258" y="256"/>
      <point x="197" y="256" type="curve" smooth="yes"/>
      <point x="146" y="256"/>
      <point x="95" y="257"/>
      <point x="38" y="261" type="curve"/>
      <point x="38" y="212"/>
      <point x="42" y="170"/>
      <point x="55" y="121" type="curve"/>
    </contour>
  </outline>
</glyph>
<glyph name="period" format="1">
  <advance width="210"/>
  <unicode hex="002E"/>
  <outline>
    <contour>
      <point x="138" y="12"/>
      <point x="165" y="40"/>
      <point x="192" y="73" type="curve"/>
      <point x="159" y="100"/>
      <point x="132" y="127"/>
      <point x="105" y="160" type="curve"/>
      <point x="72" y="133"/>
      <point x="44" y="106"/>
      <point x="17" y="73" type="curve"/>
      <point x="50" y="45"/>
      <point x="77" y="18"/>
      <point x="105" y="-15" type="curve"/>
    </contour>
  </outline>
</glyph>
<glyph name="slash" format="1">
  <advance width="326"/>
  <unicode hex="002F"/>
  <outline>
    <contour>
      <point x="101" y="-87"/>
      <point x="121" y="-83"/>
      <point x="138" y="-78" type="curve"/>
      <point x="143" y="17"/>
      <point x="248" y="443"/>
      <point x="292" y="605" type="curve"/>
      <point x="274" y="610"/>
      <point x="258" y="614"/>
      <point x="243" y="614" type="curve" smooth="yes"/>
      <point x="224" y="614"/>
      <point x="204" y="610"/>
      <point x="187" y="605" type="curve"/>
      <point x="182" y="511"/>
      <point x="77" y="84"/>
      <point x="33" y="-78" type="curve"/>
      <point x="51" y="-83"/>
      <point x="68" y="-87"/>
      <point x="82" y="-87" type="curve" smooth="yes"/>
    </contour>
  </outline>
</glyph>
<glyph name="zero" format="1">
  <advance width="581"/>
  <unicode hex="0030"/>
  <outline>
    <contour>
      <point x="438" y="-11"/>
      <point x="555" y="108"/>
      <point x="555" y="278" type="curve" smooth="yes"/>
      <point x="555" y="431"/>
      <point x="459" y="533"/>
      <point x="318" y="533" type="curve" smooth="yes"/>
      <point x="147" y="533"/>
      <point x="27" y="416"/>
      <point x="27" y="250" type="curve" smooth="yes"/>
      <point x="27" y="94"/>
      <point x="125" y="-11"/>
      <point x="272" y="-11" type="curve" smooth="yes"/>
    </contour>
    <contour>
      <point x="210" y="93"/>
      <point x="158" y="167"/>
      <point x="158" y="278" type="curve" smooth="yes"/>
      <point x="158" y="384"/>
      <point x="218" y="461"/>
      <point x="302" y="461" type="curve"/>
      <point x="377" y="445"/>
      <point x="422" y="374"/>
      <point x="422" y="272" type="curve" smooth="yes"/>
      <point x="422" y="162"/>
      <point x="370" y="93"/>
      <point x="287" y="93" type="curve" smooth="yes"/>
    </contour>
  </outline>
</glyph>
<glyph name="one" format="1">
  <advance width="347"/>
  <unicode hex="0031"/>
  <outline>
    <contour>
      <point x="256" y="-6"/>
      <point x="281" y="-4"/>
      <point x="304" y="0" type="curve"/>
      <point x="293" y="29"/>
      <point x="288" y="103"/>
      <point x="288" y="227" type="curve" smooth="yes"/>
      <point x="288" y="326"/>
      <point x="293" y="458"/>
      <point x="299" y="527" type="curve"/>
      <point x="271" y="531"/>
      <point x="246" y="533"/>
      <point x="225" y="533" type="curve"/>
      <point x="210" y="515"/>
      <point x="164" y="480"/>
      <point x="120" y="455" type="curve" smooth="yes"/>
      <point x="84" y="435"/>
      <point x="48" y="414"/>
      <point x="6" y="394" type="curve"/>
      <point x="19" y="358"/>
      <point x="32" y="329"/>
      <point x="55" y="299" type="curve"/>
      <point x="161" y="367" type="line"/>
      <point x="162" y="344"/>
      <point x="162" y="319"/>
      <point x="162" y="292" type="curve" smooth="yes"/>
      <point x="162" y="197"/>
      <point x="157" y="73"/>
      <point x="151" y="0" type="curve"/>
      <point x="182" y="-4"/>
      <point x="209" y="-6"/>
      <point x="233" y="-6" type="curve" smooth="yes"/>
    </contour>
  </outline>
</glyph>
<glyph name="seven" format="1">
  <advance width="471"/>
  <unicode hex="0037"/>
  <outline>
    <contour>
      <point x="272" y="111"/>
      <point x="354" y="265"/>
      <point x="421" y="380" type="curve" smooth="yes"/>
      <point x="442" y="416"/>
      <point x="449" y="446"/>
      <point x="449" y="480" type="curve" smooth="yes"/>
      <point x="449" y="497"/>
      <point x="441" y="527"/>
      <point x="417" y="546" type="curve"/>
      <point x="382" y="525"/>
      <point x="328" y="516"/>
      <point x="231" y="516" type="curve" smooth="yes"/>
      <point x="140" y="516"/>
      <point x="60" y="520"/>
      <point x="22" y="527" type="curve"/>
      <point x="22" y="482"/>
      <point x="33" y="424"/>
      <point x="50" y="386" type="curve"/>
      <point x="73" y="399"/>
      <point x="104" y="404"/>
      <point x="156" y="404" type="curve" smooth="yes"/>
      <point x="217" y="404"/>
      <point x="283" y="403"/>
      <point x="337" y="402" type="curve"/>
      <point x="221" y="203"/>
      <point x="114" y="80"/>
      <point x="62" y="25" type="curve"/>
      <point x="107" y="1"/>
      <point x="154" y="-6"/>
      <point x="213" y="-6" type="curve"/>
    </contour>
  </outline>
</glyph>
<glyph name="B" format="1">
  <advance width="537"/>
  <unicode hex="0042"/>
  <outline>
    <contour>
      <point x="424" y="-12"/>
      <point x="508" y="44"/>
      <point x="508" y="144" type="curve" smooth="yes"/>
      <point x="508" y="205"/>
      <point x="468" y="254"/>
      <point x="403" y="281" type="curve"/>
      <point x="453" y="306"/>
      <point x="483" y="345"/>
      <point x="483" y="391" type="curve" smooth="yes"/>
      <point x="483" y="482"/>
      <point x="407" y="532"/>
      <point x="269" y="532" type="curve" smooth="yes"/>
      <point x="188" y="532"/>
      <point x="99" y="521"/>
      <point x="45" y="505" type="curve"/>
      <point x="56" y="479"/>
      <point x="61" y="415"/>
      <point x="61" y="300" type="curve" smooth="yes"/>
      <point x="61" y="196"/>
      <point x="57" y="71"/>
      <point x="52" y="15" type="curve"/>
      <point x="105" y="-1"/>
      <point x="193" y="-12"/>
      <point x="273" y="-12" type="curve" smooth="yes"/>
    </contour>
    <contour>
      <point x="240" y="56"/>
      <point x="218" y="60"/>
      <point x="197" y="67" type="curve"/>
      <point x="195" y="104"/>
      <point x="193" y="153"/>
      <point x="193" y="216" type="curve"/>
      <point x="230" y="231"/>
      <point x="264" y="240"/>
      <point x="285" y="240" type="curve"/>
      <point x="337" y="220"/>
      <point x="366" y="187"/>
      <point x="366" y="144" type="curve" smooth="yes"/>
      <point x="366" y="85"/>
      <point x="331" y="56"/>
      <point x="262" y="56" type="curve" smooth="yes"/>
    </contour>
    <contour>
      <point x="195" y="342"/>
      <point x="197" y="392"/>
      <point x="199" y="435" type="curve"/>
      <point x="218" y="441"/>
      <point x="237" y="444"/>
      <point x="258" y="444" type="curve" smooth="yes"/>
      <point x="313" y="444"/>
      <point x="341" y="423"/>
      <point x="341" y="380" type="curve" smooth="yes"/>
      <point x="341" y="353"/>
      <point x="324" y="322"/>
      <point x="293" y="304" type="curve"/>
      <point x="250" y="304"/>
      <point x="223" y="302"/>
      <point x="194" y="295" type="curve"/>
    </contour>
  </outline>
</glyph>
<glyph name="C" format="1">
  <advance width="498"/>
  <unicode hex="0043"/>
  <outline>
    <contour>
      <point x="351" y="-11"/>
      <point x="436" y="25"/>
      <point x="483" y="78" type="curve"/>
      <point x="467" y="141" type="line"/>
      <point x="430" y="114"/>
      <point x="367" y="97"/>
      <point x="310" y="97" type="curve" smooth="yes"/>
      <point x="217" y="97"/>
      <point x="167" y="153"/>
      <point x="167" y="269" type="curve" smooth="yes"/>
      <point x="167" y="354"/>
      <point x="214" y="436"/>
      <point x="272" y="454" type="curve"/>
      <point x="306" y="454"/>
      <point x="371" y="420"/>
      <point x="422" y="375" type="curve"/>
      <point x="445" y="396"/>
      <point x="469" y="465"/>
      <point x="469" y="509" type="curve"/>
      <point x="431" y="525"/>
      <point x="380" y="533"/>
      <point x="319" y="533" type="curve" smooth="yes"/>
      <point x="150" y="533"/>
      <point x="32" y="413"/>
      <point x="32" y="241" type="curve" smooth="yes"/>
      <point x="32" y="79"/>
      <point x="117" y="-11"/>
      <point x="270" y="-11" type="curve" smooth="yes"/>
    </contour>
    <contour>
      <point x="276" y="527" type="move" name="top"/>
    </contour>
    <contour>
      <point x="256" y="0" type="move" name="bottom"/>
    </contour>
  </outline>
</glyph>
<glyph name="D" format="1">
  <advance width="588"/>
  <unicode hex="0044"/>
  <outline>
    <contour>
      <point x="429" y="-6"/>
      <point x="555" y="105"/>
      <point x="555" y="266" type="curve" smooth="yes"/>
      <point x="555" y="437"/>
      <point x="452" y="532"/>
      <point x="266" y="532" type="curve" smooth="yes"/>
      <point x="183" y="532"/>
      <point x="95" y="521"/>
      <point x="47" y="505" type="curve"/>
      <point x="58" y="478"/>
      <point x="63" y="408"/>
      <point x="63" y="300" type="curve" smooth="yes"/>
      <point x="63" y="199"/>
      <point x="58" y="73"/>
      <point x="52" y="10" type="curve"/>
      <point x="105" y="0"/>
      <point x="181" y="-6"/>
      <point x="246" y="-6" type="curve" smooth="yes"/>
    </contour>
    <contour>
      <point x="269" y="65"/>
      <point x="232" y="72"/>
      <point x="192" y="84" type="curve"/>
      <point x="190" y="121"/>
      <point x="189" y="169"/>
      <point x="189" y="227" type="curve" smooth="yes"/>
      <point x="189" y="296"/>
      <point x="191" y="378"/>
      <point x="195" y="440" type="curve"/>
      <point x="211" y="445"/>
      <point x="228" y="447"/>
      <point x="246" y="447" type="curve" smooth="yes"/>
      <point x="356" y="447"/>
      <point x="421" y="388"/>
      <point x="421" y="248" type="curve" smooth="yes"/>
      <point x="421" y="163"/>
      <point x="364" y="78"/>
      <point x="294" y="65" type="curve"/>
    </contour>
    <contour>
      <point x="173" y="264" type="move" name="center"/>
    </contour>
    <contour>
      <point x="294" y="0" type="move" name="bottom"/>
    </contour>
    <contour>
      <point x="294" y="527" type="move" name="top"/>
    </contour>
  </outline>
</glyph>
<glyph name="E" format="1">
  <advance width="470"/>
  <unicode hex="0045"/>
  <outline>
    <contour>
      <point x="91" y="2"/>
      <point x="159" y="4"/>
      <point x="228" y="4" type="curve" smooth="yes"/>
      <point x="300" y="4"/>
      <point x="374" y="2"/>
      <point x="424" y="-3" type="curve"/>
      <point x="437" y="19"/>
      <point x="445" y="88"/>
      <point x="445" y="133" type="curve"/>
      <point x="403" y="116"/>
      <point x="334" y="106"/>
      <point x="273" y="106" type="curve" smooth="yes"/>
      <point x="247" y="106"/>
      <point x="220" y="108"/>
      <point x="196" y="112" type="curve"/>
      <point x="194" y="145"/>
      <point x="193" y="184"/>
      <point x="193" y="223" type="curve"/>
      <point x="250" y="223"/>
      <point x="294" y="221"/>
      <point x="389" y="216" type="curve"/>
      <point x="391" y="233"/>
      <point x="393" y="251"/>
      <point x="393" y="266" type="curve" smooth="yes"/>
      <point x="393" y="282"/>
      <point x="391" y="299"/>
      <point x="389" y="315" type="curve"/>
      <point x="349" y="308"/>
      <point x="322" y="304"/>
      <point x="247" y="304" type="curve" smooth="yes"/>
      <point x="230" y="304"/>
      <point x="212" y="304"/>
      <point x="194" y="305" type="curve"/>
      <point x="194" y="341"/>
      <point x="196" y="379"/>
      <point x="198" y="413" type="curve"/>
      <point x="220" y="416"/>
      <point x="245" y="418"/>
      <point x="268" y="418" type="curve" smooth="yes"/>
      <point x="322" y="418"/>
      <point x="383" y="409"/>
      <point x="420" y="391" type="curve"/>
      <point x="433" y="411"/>
      <point x="441" y="482"/>
      <point x="441" y="527" type="curve"/>
      <point x="386" y="522"/>
      <point x="303" y="520"/>
      <point x="223" y="520" type="curve" smooth="yes"/>
      <point x="154" y="520"/>
      <point x="86" y="522"/>
      <point x="45" y="527" type="curve"/>
      <point x="58" y="476"/>
      <point x="61" y="428"/>
      <point x="61" y="300" type="curve" smooth="yes"/>
      <point x="61" y="195"/>
      <point x="56" y="63"/>
      <point x="50" y="-3" type="curve"/>
    </contour>
    <contour>
      <point x="424" y="17" type="move" name="ogonek"/>
    </contour>
    <contour>
      <point x="255" y="527" type="move" name="top"/>
    </contour>
    <contour>
      <point x="20" y="527" type="move" name="topleft"/>
    </contour>
    <contour>
      <point x="235" y="0" type="move" name="bottom"/>
    </contour>
  </outline>
</glyph>
<glyph name="F" format="1">
  <advance width="436"/>
  <unicode hex="0046"/>
  <outline>
    <contour>
      <point x="160" y="-6"/>
      <point x="185" y="-4"/>
      <point x="209" y="0" type="curve"/>
      <point x="198" y="29"/>
      <point x="193" y="100"/>
      <point x="193" y="223" type="curve"/>
      <point x="248" y="223"/>
      <point x="284" y="222"/>
      <point x="369" y="216" type="curve"/>
      <point x="372" y="238"/>
      <point x="373" y="254"/>
      <point x="373" y="266" type="curve" smooth="yes"/>
      <point x="373" y="279"/>
      <point x="372" y="293"/>
      <point x="369" y="315" type="curve"/>
      <point x="324" y="306"/>
      <point x="298" y="304"/>
      <point x="237" y="304" type="curve" smooth="yes"/>
      <point x="222" y="304"/>
      <point x="204" y="304"/>
      <point x="190" y="305" type="curve"/>
      <point x="190" y="342"/>
      <point x="191" y="397"/>
      <point x="192" y="413" type="curve"/>
      <point x="216" y="416"/>
      <point x="243" y="418"/>
      <point x="268" y="418" type="curve" smooth="yes"/>
      <point x="321" y="418"/>
      <point x="372" y="408"/>
      <point x="400" y="391" type="curve"/>
      <point x="411" y="408"/>
      <point x="421" y="474"/>
      <point x="421" y="527" type="curve"/>
      <point x="379" y="522"/>
      <point x="312" y="520"/>
      <point x="223" y="520" type="curve" smooth="yes"/>
      <point x="149" y="520"/>
      <point x="94" y="522"/>
      <point x="45" y="527" type="curve"/>
      <point x="58" y="470"/>
      <point x="61" y="419"/>
      <point x="61" y="280" type="curve" smooth="yes"/>
      <point x="61" y="189"/>
      <point x="56" y="65"/>
      <point x="50" y="0" type="curve"/>
      <point x="82" y="-4"/>
      <point x="111" y="-6"/>
      <point x="136" y="-6" type="curve" smooth="yes"/>
    </contour>
  </outline>
</glyph>
<glyph name="G" format="1">
  <advance width="533"/>
  <unicode hex="0047"/>
  <outline>
    <contour>
      <point x="351" y="-11"/>
      <point x="436" y="17"/>
      <point x="483" y="58" type="curve"/>
      <point x="484" y="125"/>
      <point x="488" y="199"/>
      <point x="493" y="248" type="curve"/>
      <point x="461" y="252"/>
      <point x="437" y="254"/>
      <point x="415" y="254" type="curve" smooth="yes"/>
      <point x="392" y="254"/>
      <point x="366" y="252"/>
      <point x="346" y="248" type="curve"/>
      <point x="356" y="225"/>
      <point x="361" y="174"/>
      <point x="362" y="92" type="curve"/>
      <point x="345" y="88"/>
      <point x="328" y="87"/>
      <point x="311" y="87" type="curve" smooth="yes"/>
      <point x="214" y="87"/>
      <point x="167" y="146"/>
      <point x="167" y="269" type="curve" smooth="yes"/>
      <point x="167" y="354"/>
      <point x="214" y="436"/>
      <point x="272" y="454" type="curve"/>
      <point x="309" y="454"/>
      <point x="380" y="419"/>
      <point x="432" y="375" type="curve"/>
      <point x="455" y="396"/>
      <point x="479" y="465"/>
      <point x="479" y="509" type="curve"/>
      <point x="441" y="525"/>
      <point x="385" y="533"/>
      <point x="319" y="533" type="curve" smooth="yes"/>
      <point x="150" y="533"/>
      <point x="32" y="413"/>
      <point x="32" y="241" type="curve" smooth="yes"/>
      <point x="32" y="79"/>
      <point x="117" y="-11"/>
      <point x="270" y="-11" type="curve" smooth="yes"/>
    </contour>
    <contour>
      <point x="287" y="527" type="move" name="top"/>
    </contour>
    <contour>
      <point x="267" y="0" type="move" name="bottom"/>
    </contour>
  </outline>
</glyph>
<glyph name="H" format="1">
  <advance width="571"/>
  <unicode hex="0048"/>
  <outline>
    <contour>
      <point x="157" y="-6"/>
      <point x="181" y="-4"/>
      <point x="204" y="0" type="curve"/>
      <point x="194" y="29"/>
      <point x="188" y="101"/>
      <point x="188" y="223" type="curve"/>
      <point x="211" y="224"/>
      <point x="237" y="225"/>
      <point x="267" y="225" type="curve" smooth="yes"/>
      <point x="303" y="225"/>
      <point x="344" y="224"/>
      <point x="380" y="223" type="curve"/>
      <point x="379" y="140"/>
      <point x="375" y="52"/>
      <point x="370" y="0" type="curve"/>
      <point x="401" y="-4"/>
      <point x="428" y="-6"/>
      <point x="452" y="-6" type="curve" smooth="yes"/>
      <point x="475" y="-6"/>
      <point x="500" y="-4"/>
      <point x="523" y="0" type="curve"/>
      <point x="513" y="30"/>
      <point x="507" y="113"/>
      <point x="507" y="235" type="curve" smooth="yes"/>
      <point x="507" y="330"/>
      <point x="512" y="454"/>
      <point x="518" y="527" type="curve"/>
      <point x="490" y="531"/>
      <point x="466" y="533"/>
      <point x="444" y="533" type="curve" smooth="yes"/>
      <point x="417" y="533"/>
      <point x="389" y="531"/>
      <point x="365" y="527" type="curve"/>
      <point x="376" y="498"/>
      <point x="381" y="426"/>
      <point x="381" y="304" type="curve"/>
      <point x="362" y="303"/>
      <point x="340" y="302"/>
      <point x="315" y="302" type="curve" smooth="yes"/>
      <point x="272" y="302"/>
      <point x="227" y="303"/>
      <point x="189" y="305" type="curve"/>
      <point x="191" y="387"/>
      <point x="195" y="475"/>
      <point x="199" y="527" type="curve"/>
      <point x="171" y="531"/>
      <point x="147" y="533"/>
      <point x="126" y="533" type="curve" smooth="yes"/>
      <point x="99" y="533"/>
      <point x="71" y="531"/>
      <point x="47" y="527" type="curve"/>
      <point x="57" y="497"/>
      <point x="63" y="414"/>
      <point x="63" y="292" type="curve" smooth="yes"/>
      <point x="63" y="197"/>
      <point x="58" y="73"/>
      <point x="52" y="0" type="curve"/>
      <point x="83" y="-4"/>
      <point x="110" y="-6"/>
      <point x="134" y="-6" type="curve" smooth="yes"/>
    </contour>
    <contour>
      <point x="285" y="414" type="move" name="center"/>
    </contour>
    <contour>
      <point x="285" y="527" type="move" name="top"/>
    </contour>
    <contour>
      <point x="16" y="527" type="move" name="topleft"/>
    </contour>
    <contour>
      <point x="285" y="0" type="move" name="bottom"/>
    </contour>
  </outline>
</glyph>
<glyph name="J" format="1">
  <advance width="327"/>
  <unicode hex="004A"/>
  <outline>
    <contour>
      <point x="217" y="-12"/>
      <point x="282" y="69"/>
      <point x="282" y="227" type="curve" smooth="yes"/>
      <point x="282" y="385"/>
      <point x="284" y="478"/>
      <point x="289" y="527" type="curve"/>
      <point x="261" y="531"/>
      <point x="235" y="533"/>
      <point x="212" y="533" type="curve" smooth="yes"/>
      <point x="188" y="533"/>
      <point x="162" y="531"/>
      <point x="137" y="527" type="curve"/>
      <point x="150" y="495"/>
      <point x="157" y="414"/>
      <point x="157" y="300" type="curve" smooth="yes"/>
      <point x="157" y="120"/>
      <point x="153" y="90"/>
      <point x="126" y="70" type="curve"/>
      <point x="101" y="70"/>
      <point x="59" y="94"/>
      <point x="19" y="131" type="curve"/>
      <point x="-1" y="102"/>
      <point x="-15" y="47"/>
      <point x="-15" y="2" type="curve"/>
      <point x="16" y="-7"/>
      <point x="51" y="-12"/>
      <point x="89" y="-12" type="curve" smooth="yes"/>
    </contour>
    <contour>
      <point x="212" y="527" type="move" name="top"/>
    </contour>
    <contour>
      <point x="160" y="0" type="move" name="bottom"/>
    </contour>
  </outline>
</glyph>
<glyph name="L" format="1">
  <advance width="423"/>
  <unicode hex="004C"/>
  <outline>
    <contour>
      <point x="94" y="2"/>
      <point x="160" y="4"/>
      <point x="232" y="4" type="curve" smooth="yes"/>
      <point x="293" y="4"/>
      <point x="355" y="2"/>
      <point x="396" y="-3" type="curve"/>
      <point x="409" y="16"/>
      <point x="417" y="78"/>
      <point x="417" y="120" type="curve"/>
      <point x="383" y="103"/>
      <point x="326" y="93"/>
      <point x="277" y="93" type="curve" smooth="yes"/>
      <point x="249" y="93"/>
      <point x="217" y="96"/>
      <point x="192" y="99" type="curve"/>
      <point x="189" y="132"/>
      <point x="188" y="174"/>
      <point x="188" y="227" type="curve" smooth="yes"/>
      <point x="188" y="330"/>
      <point x="193" y="460"/>
      <point x="199" y="527" type="curve"/>
      <point x="170" y="531"/>
      <point x="145" y="533"/>
      <point x="122" y="533" type="curve" smooth="yes"/>
      <point x="97" y="533"/>
      <point x="72" y="531"/>
      <point x="47" y="527" type="curve"/>
      <point x="58" y="497"/>
      <point x="63" y="413"/>
      <point x="63" y="292" type="curve" smooth="yes"/>
      <point x="63" y="185"/>
      <point x="59" y="77"/>
      <point x="52" y="-3" type="curve"/>
    </contour>
    <contour>
      <point x="130" y="264" type="move" name="center"/>
    </contour>
    <contour>
      <point x="131" y="527" type="move" name="top"/>
    </contour>
    <contour>
      <point x="312" y="407" type="move" name="topright"/>
    </contour>
    <contour>
      <point x="216" y="0" type="move" name="bottom"/>
    </contour>
  </outline>
</glyph>
<glyph name="M" format="1">
  <advance width="713"/>
  <unicode hex="004D"/>
  <outline>
    <contour>
      <point x="114" y="-6"/>
      <point x="133" y="-4"/>
      <point x="150" y="0" type="curve"/>
      <point x="143" y="30"/>
      <point x="139" y="107"/>
      <point x="139" y="227" type="curve" smooth="yes"/>
      <point x="139" y="263"/>
      <point x="139" y="301"/>
      <point x="140" y="338" type="curve"/>
      <point x="198" y="216"/>
      <point x="264" y="70"/>
      <point x="294" y="0" type="curve"/>
      <point x="303" y="-3"/>
      <point x="312" y="-5"/>
      <point x="322" y="-5" type="curve" smooth="yes"/>
      <point x="331" y="-5"/>
      <point x="341" y="-3"/>
      <point x="350" y="0" type="curve"/>
      <point x="383" y="77"/>
      <point x="460" y="248"/>
      <point x="523" y="376" type="curve"/>
      <point x="524" y="354"/>
      <point x="524" y="328"/>
      <point x="524" y="300" type="curve" smooth="yes"/>
      <point x="524" y="196"/>
      <point x="519" y="66"/>
      <point x="513" y="0" type="curve"/>
      <point x="541" y="-4"/>
      <point x="565" y="-6"/>
      <point x="586" y="-6" type="curve" smooth="yes"/>
      <point x="612" y="-6"/>
      <point x="639" y="-4"/>
      <point x="665" y="0" type="curve"/>
      <point x="654" y="30"/>
      <point x="649" y="107"/>
      <point x="649" y="227" type="curve" smooth="yes"/>
      <point x="649" y="331"/>
      <point x="654" y="461"/>
      <point x="660" y="527" type="curve"/>
      <point x="630" y="531"/>
      <point x="602" y="533"/>
      <point x="578" y="533" type="curve" smooth="yes"/>
      <point x="554" y="533"/>
      <point x="527" y="531"/>
      <point x="508" y="527" type="curve"/>
      <point x="478" y="456"/>
      <point x="405" y="296"/>
      <point x="350" y="181" type="curve"/>
      <point x="297" y="291"/>
      <point x="223" y="455"/>
      <point x="193" y="527" type="curve"/>
      <point x="168" y="531"/>
      <point x="138" y="533"/>
      <point x="116" y="533" type="curve" smooth="yes"/>
      <point x="92" y="533"/>
      <point x="69" y="531"/>
      <point x="47" y="527" type="curve"/>
      <point x="56" y="463"/>
      <point x="59" y="390"/>
      <point x="59" y="292" type="curve" smooth="yes"/>
      <point x="59" y="190"/>
      <point x="56" y="64"/>
      <point x="51" y="0" type="curve"/>
      <point x="69" y="-4"/>
      <point x="84" y="-6"/>
      <point x="97" y="-6" type="curve" smooth="yes"/>
    </contour>
  </outline>
</glyph>
<glyph name="N" format="1">
  <advance width="546"/>
  <unicode hex="004E"/>
  <outline>
    <contour>
      <point x="114" y="-6"/>
      <point x="129" y="-4"/>
      <point x="144" y="0" type="curve"/>
      <point x="137" y="30"/>
      <point x="133" y="107"/>
      <point x="133" y="227" type="curve" smooth="yes"/>
      <point x="133" y="276"/>
      <point x="134" y="330"/>
      <point x="135" y="380" type="curve"/>
      <point x="211" y="253"/>
      <point x="307" y="83"/>
      <point x="349" y="0" type="curve"/>
      <point x="378" y="-4"/>
      <point x="409" y="-6"/>
      <point x="433" y="-6" type="curve" smooth="yes"/>
      <point x="457" y="-6"/>
      <point x="481" y="-4"/>
      <point x="503" y="0" type="curve"/>
      <point x="496" y="31"/>
      <point x="492" y="111"/>
      <point x="492" y="235" type="curve" smooth="yes"/>
      <point x="492" y="337"/>
      <point x="496" y="463"/>
      <point x="500" y="527" type="curve"/>
      <point x="479" y="531"/>
      <point x="461" y="533"/>
      <point x="446" y="533" type="curve" smooth="yes"/>
      <point x="431" y="533"/>
      <point x="416" y="531"/>
      <point x="402" y="527" type="curve"/>
      <point x="410" y="497"/>
      <point x="413" y="420"/>
      <point x="413" y="300" type="curve" smooth="yes"/>
      <point x="413" y="251"/>
      <point x="412" y="197"/>
      <point x="411" y="147" type="curve"/>
      <point x="335" y="274"/>
      <point x="238" y="444"/>
      <point x="197" y="527" type="curve"/>
      <point x="163" y="531"/>
      <point x="137" y="533"/>
      <point x="114" y="533" type="curve" smooth="yes"/>
      <point x="89" y="533"/>
      <point x="60" y="531"/>
      <point x="42" y="527" type="curve"/>
      <point x="49" y="496"/>
      <point x="53" y="416"/>
      <point x="53" y="292" type="curve" smooth="yes"/>
      <point x="53" y="190"/>
      <point x="50" y="64"/>
      <point x="45" y="0" type="curve"/>
      <point x="66" y="-4"/>
      <point x="84" y="-6"/>
      <point x="100" y="-6" type="curve" smooth="yes"/>
    </contour>
    <contour>
      <point x="273" y="527" type="move" name="top"/>
    </contour>
    <contour>
      <point x="273" y="0" type="move" name="bottom"/>
    </contour>
  </outline>
</glyph>
<glyph name="R" format="1">
  <advance width="520"/>
  <unicode hex="0052"/>
  <outline>
    <contour>
      <point x="160" y="-6"/>
      <point x="185" y="-4"/>
      <point x="209" y="0" type="curve"/>
      <point x="200" y="26"/>
      <point x="195" y="88"/>
      <point x="193" y="183" type="curve"/>
      <point x="212" y="181"/>
      <point x="229" y="180"/>
      <point x="253" y="180" type="curve"/>
      <point x="298" y="95"/>
      <point x="330" y="28"/>
      <point x="344" y="-6" type="curve"/>
      <point x="407" y="-6"/>
      <point x="458" y="-1"/>
      <point x="510" y="15" type="curve"/>
      <point x="474" y="46"/>
      <point x="429" y="121"/>
      <point x="385" y="209" type="curve"/>
      <point x="446" y="240"/>
      <point x="483" y="292"/>
      <point x="483" y="356" type="curve" smooth="yes"/>
      <point x="483" y="469"/>
      <point x="403" y="532"/>
      <point x="258" y="532" type="curve" smooth="yes"/>
      <point x="178" y="532"/>
      <point x="91" y="521"/>
      <point x="45" y="505" type="curve"/>
      <point x="56" y="477"/>
      <point x="61" y="403"/>
      <point x="61" y="290" type="curve" smooth="yes"/>
      <point x="61" y="189"/>
      <point x="56" y="64"/>
      <point x="50" y="0" type="curve"/>
      <point x="82" y="-4"/>
      <point x="111" y="-6"/>
      <point x="136" y="-6" type="curve" smooth="yes"/>
    </contour>
    <contour>
      <point x="263" y="254"/>
      <point x="229" y="261"/>
      <point x="193" y="272" type="curve"/>
      <point x="194" y="329"/>
      <point x="196" y="390"/>
      <point x="199" y="440" type="curve"/>
      <point x="211" y="443"/>
      <point x="224" y="444"/>
      <point x="237" y="444" type="curve" smooth="yes"/>
      <point x="303" y="444"/>
      <point x="341" y="415"/>
      <point x="341" y="348" type="curve" smooth="yes"/>
      <point x="341" y="304"/>
      <point x="316" y="274"/>
      <point x="285" y="254" type="curve"/>
    </contour>
    <contour>
      <point x="263" y="527" type="move" name="top"/>
    </contour>
    <contour>
      <point x="263" y="0" type="move" name="bottom"/>
    </contour>
  </outline>
</glyph>
<glyph name="S" format="1">
  <advance width="467"/>
  <unicode hex="0053"/>
  <outline>
    <contour>
      <point x="366" y="-11"/>
      <point x="438" y="46"/>
      <point x="438" y="142" type="curve" smooth="yes"/>
      <point x="438" y="320"/>
      <point x="167" y="314"/>
      <point x="167" y="406" type="curve" smooth="yes"/>
      <point x="167" y="434"/>
      <point x="189" y="451"/>
      <point x="207" y="455" type="curve"/>
      <point x="251" y="455"/>
      <point x="319" y="420"/>
      <point x="377" y="375" type="curve"/>
      <point x="400" y="405"/>
      <point x="421" y="468"/>
      <point x="421" y="509" type="curve"/>
      <point x="375" y="525"/>
      <point x="317" y="533"/>
      <point x="252" y="533" type="curve" smooth="yes"/>
      <point x="117" y="533"/>
      <point x="32" y="471"/>
      <point x="32" y="381" type="curve" smooth="yes"/>
      <point x="32" y="209"/>
      <point x="303" y="204"/>
      <point x="303" y="120" type="curve" smooth="yes"/>
      <point x="303" y="84"/>
      <point x="271" y="64"/>
      <point x="212" y="64" type="curve" smooth="yes"/>
      <point x="143" y="64"/>
      <point x="80" y="83"/>
      <point x="45" y="115" type="curve"/>
      <point x="33" y="87"/>
      <point x="28" y="62"/>
      <point x="28" y="25" type="curve"/>
      <point x="77" y="3"/>
      <point x="142" y="-11"/>
      <point x="219" y="-11" type="curve" smooth="yes"/>
    </contour>
    <contour>
      <point x="231" y="527" type="move" name="top"/>
    </contour>
    <contour>
      <point x="231" y="0" type="move" name="bottom"/>
    </contour>
  </outline>
</glyph>
<glyph name="T" format="1">
  <advance width="454"/>
  <unicode hex="0054"/>
  <outline>
    <contour>
      <point x="262" y="-6"/>
      <point x="290" y="-4"/>
      <point x="306" y="0" type="curve"/>
      <point x="295" y="29"/>
      <point x="290" y="102"/>
      <point x="290" y="227" type="curve" smooth="yes"/>
      <point x="290" y="286"/>
      <point x="292" y="358"/>
      <point x="295" y="418" type="curve"/>
      <point x="353" y="417"/>
      <point x="409" y="414"/>
      <point x="444" y="411" type="curve"/>
      <point x="447" y="429"/>
      <point x="449" y="452"/>
      <point x="449" y="472" type="curve" smooth="yes"/>
      <point x="449" y="490"/>
      <point x="447" y="508"/>
      <point x="444" y="530" type="curve"/>
      <point x="420" y="521"/>
      <point x="360" y="517"/>
      <point x="256" y="517" type="curve" smooth="yes"/>
      <point x="173" y="517"/>
      <point x="66" y="521"/>
      <point x="11" y="526" type="curve"/>
      <point x="8" y="508"/>
      <point x="6" y="491"/>
      <point x="6" y="474" type="curve" smooth="yes"/>
      <point x="6" y="453"/>
      <point x="8" y="432"/>
      <point x="11" y="407" type="curve"/>
      <point x="32" y="415"/>
      <point x="81" y="419"/>
      <point x="162" y="420" type="curve"/>
      <point x="164" y="388"/>
      <point x="165" y="349"/>
      <point x="165" y="300" type="curve" smooth="yes"/>
      <point x="165" y="201"/>
      <point x="160" y="69"/>
      <point x="154" y="0" type="curve"/>
      <point x="185" y="-4"/>
      <point x="210" y="-6"/>
      <point x="231" y="-6" type="curve" smooth="yes"/>
    </contour>
    <contour>
      <point x="227" y="264" type="move" name="center"/>
    </contour>
    <contour>
      <point x="227" y="0" type="move" name="bottom"/>
    </contour>
    <contour>
      <point x="227" y="527" type="move" name="top"/>
    </contour>
  </outline>
</glyph>
<glyph name="U" format="1">
  <advance width="534"/>
  <unicode hex="0055"/>
  <outline>
    <contour>
      <point x="442" y="-5"/>
      <point x="488" y="98"/>
      <point x="488" y="205" type="curve" smooth="yes"/>
      <point x="488" y="305"/>
      <point x="492" y="453"/>
      <point x="496" y="527" type="curve"/>
      <point x="477" y="531"/>
      <point x="460" y="533"/>
      <point x="446" y="533" type="curve" smooth="yes"/>
      <point x="430" y="533"/>
      <point x="413" y="531"/>
      <point x="398" y="527" type="curve"/>
      <point x="404" y="485"/>
      <point x="406" y="327"/>
      <point x="406" y="204" type="curve" smooth="yes"/>
      <point x="406" y="144"/>
      <point x="381" y="90"/>
      <point x="289" y="90" type="curve" smooth="yes"/>
      <point x="222" y="90"/>
      <point x="183" y="128"/>
      <point x="183" y="217" type="curve" smooth="yes"/>
      <point x="183" y="324"/>
      <point x="186" y="458"/>
      <point x="189" y="527" type="curve"/>
      <point x="161" y="531"/>
      <point x="137" y="533"/>
      <point x="116" y="533" type="curve" smooth="yes"/>
      <point x="90" y="533"/>
      <point x="63" y="531"/>
      <point x="37" y="527" type="curve"/>
      <point x="48" y="484"/>
      <point x="53" y="323"/>
      <point x="53" y="200" type="curve" smooth="yes"/>
      <point x="53" y="69"/>
      <point x="133" y="-5"/>
      <point x="269" y="-5" type="curve" smooth="yes"/>
    </contour>
    <contour>
      <point x="371" y="11" type="move" name="ogonek"/>
    </contour>
    <contour>
      <point x="288" y="527" type="move" name="top"/>
    </contour>
    <contour>
      <point x="514" y="527" type="move" name="topright"/>
    </contour>
    <contour>
      <point x="268" y="0" type="move" name="bottom"/>
    </contour>
  </outline>
</glyph>
<glyph name="W" format="1">
  <advance width="816"/>
  <unicode hex="0057"/>
  <outline>
    <contour>
      <point x="326" y="27" type="line"/>
      <point x="347" y="99"/>
      <point x="378" y="196"/>
      <point x="408" y="291" type="curve"/>
      <point x="460" y="120"/>
      <point x="484" y="-9"/>
      <point x="560" y="-9" type="curve"/>
      <point x="647" y="27" type="line"/>
      <point x="688" y="168"/>
      <point x="767" y="409"/>
      <point x="811" y="533" type="curve"/>
      <point x="769" y="533"/>
      <point x="737" y="530"/>
      <point x="702" y="522" type="curve"/>
      <point x="713" y="490"/>
      <point x="681" y="369"/>
      <point x="599" y="120" type="curve"/>
      <point x="585" y="153"/>
      <point x="569" y="197"/>
      <point x="549" y="260" type="curve" smooth="yes"/>
      <point x="527" y="336"/>
      <point x="500" y="460"/>
      <point x="489" y="533" type="curve"/>
      <point x="430" y="533"/>
      <point x="381" y="528"/>
      <point x="327" y="512" type="curve"/>
      <point x="367" y="414" type="line"/>
      <point x="350" y="348"/>
      <point x="321" y="252"/>
      <point x="278" y="120" type="curve"/>
      <point x="264" y="153"/>
      <point x="247" y="197"/>
      <point x="227" y="260" type="curve" smooth="yes"/>
      <point x="201" y="350"/>
      <point x="176" y="471"/>
      <point x="168" y="533" type="curve"/>
      <point x="104" y="533"/>
      <point x="55" y="526"/>
      <point x="5" y="512" type="curve"/>
      <point x="127" y="244"/>
      <point x="132" y="-9"/>
      <point x="238" y="-9" type="curve"/>
    </contour>
    <contour>
      <point x="408" y="527" type="move" name="top"/>
    </contour>
    <contour>
      <point x="408" y="0" type="move" name="bottom"/>
    </contour>
  </outline>
</glyph>
<glyph name="Z" format="1">
  <advance width="470"/>
  <unicode hex="005A"/>
  <outline>
    <contour>
      <point x="442" y="23"/>
      <point x="450" y="93"/>
      <point x="450" y="136" type="curve"/>
      <point x="405" y="119"/>
      <point x="331" y="110"/>
      <point x="266" y="110" type="curve" smooth="yes"/>
      <point x="235" y="110"/>
      <point x="203" y="113"/>
      <point x="177" y="115" type="curve"/>
      <point x="260" y="214"/>
      <point x="392" y="371"/>
      <point x="432" y="424" type="curve" smooth="yes"/>
      <point x="449" y="448"/>
      <point x="454" y="467"/>
      <point x="454" y="489" type="curve" smooth="yes"/>
      <point x="454" y="504"/>
      <point x="446" y="529"/>
      <point x="422" y="546" type="curve"/>
      <point x="387" y="525"/>
      <point x="333" y="516"/>
      <point x="236" y="516" type="curve" smooth="yes"/>
      <point x="145" y="516"/>
      <point x="65" y="520"/>
      <point x="27" y="527" type="curve"/>
      <point x="27" y="482"/>
      <point x="38" y="424"/>
      <point x="55" y="386" type="curve"/>
      <point x="78" y="399"/>
      <point x="109" y="404"/>
      <point x="161" y="404" type="curve" smooth="yes"/>
      <point x="218" y="404"/>
      <point x="280" y="402"/>
      <point x="328" y="401" type="curve"/>
      <point x="194" y="235"/>
      <point x="72" y="98"/>
      <point x="16" y="46" type="curve"/>
      <point x="16" y="0" type="line"/>
      <point x="95" y="5"/>
      <point x="369" y="5"/>
      <point x="430" y="-5" type="curve"/>
    </contour>
    <contour>
      <point x="236" y="527" type="move" name="top"/>
    </contour>
    <contour>
      <point x="236" y="0" type="move" name="bottom"/>
    </contour>
  </outline>
</glyph>
<glyph name="bracketleft" format="1">
  <advance width="357"/>
  <unicode hex="005B"/>
  <outline>
    <contour>
      <point x="325" y="-102"/>
      <point x="327" y="-84"/>
      <point x="327" y="-66" type="curve" smooth="yes"/>
      <point x="327" y="-46"/>
      <point x="325" y="-23"/>
      <point x="322" y="-5" type="curve"/>
      <point x="290" y="-8"/>
      <point x="239" y="-11"/>
      <point x="187" y="-12" type="curve"/>
      <point x="182" y="50"/>
      <point x="180" y="139"/>
      <point x="180" y="286" type="curve" smooth="yes"/>
      <point x="180" y="346"/>
      <point x="182" y="455"/>
      <point x="186" y="540" type="curve"/>
      <point x="236" y="538"/>
      <point x="283" y="536"/>
      <point x="314" y="533" type="curve"/>
      <point x="317" y="551"/>
      <point x="319" y="574"/>
      <point x="319" y="594" type="curve" smooth="yes"/>
      <point x="319" y="612"/>
      <point x="317" y="630"/>
      <point x="314" y="652" type="curve"/>
      <point x="292" y="645"/>
      <point x="240" y="639"/>
      <point x="151" y="639" type="curve" smooth="yes"/>
      <point x="114" y="639"/>
      <point x="78" y="640"/>
      <point x="47" y="643" type="curve"/>
      <point x="57" y="585"/>
      <point x="63" y="491"/>
      <point x="63" y="286" type="curve" smooth="yes"/>
      <point x="63" y="194"/>
      <point x="57" y="-22"/>
      <point x="52" y="-116" type="curve"/>
      <point x="92" y="-112"/>
      <point x="127" y="-111"/>
      <point x="159" y="-111" type="curve" smooth="yes"/>
      <point x="248" y="-111"/>
      <point x="300" y="-117"/>
      <point x="322" y="-124" type="curve"/>
    </contour>
  </outline>
</glyph>
<glyph name="c" format="1">
  <advance width="401"/>
  <unicode hex="0063"/>
  <outline>
    <contour>
      <point x="277" y="-11"/>
      <point x="343" y="22"/>
      <point x="380" y="70" type="curve"/>
      <point x="372" y="137" type="line"/>
      <point x="343" y="113"/>
      <point x="301" y="100"/>
      <point x="255" y="100" type="curve" smooth="yes"/>
      <point x="183" y="100"/>
      <point x="154" y="143"/>
      <point x="154" y="215" type="curve" smooth="yes"/>
      <point x="154" y="268"/>
      <point x="174" y="314"/>
      <point x="207" y="336" type="curve"/>
      <point x="238" y="336"/>
      <point x="288" y="309"/>
      <point x="336" y="265" type="curve"/>
      <point x="352" y="303"/>
      <point x="367" y="363"/>
      <point x="367" y="394" type="curve"/>
      <point x="334" y="411"/>
      <point x="296" y="418"/>
      <point x="254" y="418" type="curve" smooth="yes"/>
      <point x="118" y="418"/>
      <point x="23" y="325"/>
      <point x="23" y="191" type="curve" smooth="yes"/>
      <point x="23" y="61"/>
      <point x="92" y="-11"/>
      <point x="214" y="-11" type="curve" smooth="yes"/>
    </contour>
    <contour>
      <point x="208" y="407" type="move" name="top"/>
    </contour>
    <contour>
      <point x="198" y="0" type="move" name="bottom"/>
    </contour>
  </outline>
</glyph>
<glyph name="d" format="1">
  <advance width="500"/>
  <unicode hex="0064"/>
  <outline>
    <contour>
      <point x="243" y="-12"/>
      <point x="286" y="7"/>
      <point x="321" y="37" type="curve"/>
      <point x="328" y="17"/>
      <point x="340" y="1"/>
      <point x="357" y="-11" type="curve"/>
      <point x="400" y="-6"/>
      <point x="443" y="11"/>
      <point x="476" y="35" type="curve"/>
      <point x="445" y="76"/>
      <point x="437" y="104"/>
      <point x="437" y="165" type="curve" smooth="yes"/>
      <point x="437" y="342"/>
      <point x="442" y="481"/>
      <point x="449" y="547" type="curve"/>
      <point x="397" y="547"/>
      <point x="346" y="543"/>
      <point x="299" y="527" type="curve"/>
      <point x="308" y="494"/>
      <point x="314" y="448"/>
      <point x="316" y="386" type="curve"/>
      <point x="283" y="408"/>
      <point x="246" y="418"/>
      <point x="206" y="418" type="curve" smooth="yes"/>
      <point x="92" y="418"/>
      <point x="32" y="342"/>
      <point x="32" y="195" type="curve" smooth="yes"/>
      <point x="32" y="59"/>
      <point x="90" y="-12"/>
      <point x="201" y="-12" type="curve" smooth="yes"/>
    </contour>
    <contour>
      <point x="191" y="67"/>
      <point x="163" y="114"/>
      <point x="163" y="181" type="curve" smooth="yes"/>
      <point x="163" y="265"/>
      <point x="194" y="306"/>
      <point x="257" y="306" type="curve" smooth="yes"/>
      <point x="279" y="306"/>
      <point x="300" y="300"/>
      <point x="319" y="291" type="curve"/>
      <point x="319" y="224"/>
      <point x="315" y="157"/>
      <point x="315" y="92" type="curve"/>
      <point x="290" y="73"/>
      <point x="262" y="60"/>
      <point x="237" y="57" type="curve"/>
    </contour>
    <contour>
      <point x="359" y="470" type="move" name="center"/>
    </contour>
    <contour>
      <point x="251" y="407" type="move" name="top"/>
    </contour>
    <contour>
      <point x="550" y="407" type="move" name="topright"/>
    </contour>
    <contour>
      <point x="251" y="0" type="move" name="bottom"/>
    </contour>
  </outline>
</glyph>
<glyph name="f" format="1">
  <advance width="316"/>
  <unicode hex="0066"/>
  <outline>
    <contour>
      <point x="173" y="-86"/>
      <point x="210" y="-30"/>
      <point x="210" y="63" type="curve" smooth="yes"/>
      <point x="210" y="107"/>
      <point x="203" y="176"/>
      <point x="203" y="284" type="curve" smooth="yes"/>
      <point x="203" y="323" type="line"/>
      <point x="241" y="322"/>
      <point x="269" y="318"/>
      <point x="292" y="311" type="curve"/>
      <point x="304" y="342"/>
      <point x="309" y="368"/>
      <point x="309" y="404" type="curve"/>
      <point x="286" y="400"/>
      <point x="250" y="397"/>
      <point x="205" y="396" type="curve"/>
      <point x="209" y="459"/>
      <point x="218" y="481"/>
      <point x="238" y="496" type="curve"/>
      <point x="268" y="490"/>
      <point x="295" y="476"/>
      <point x="352" y="440" type="curve"/>
      <point x="365" y="462"/>
      <point x="381" y="531"/>
      <point x="381" y="566" type="curve"/>
      <point x="348" y="579"/>
      <point x="309" y="585"/>
      <point x="265" y="585" type="curve" smooth="yes"/>
      <point x="165" y="585"/>
      <point x="89" y="517"/>
      <point x="70" y="411" type="curve"/>
      <point x="48" y="395"/>
      <point x="26" y="381"/>
      <point x="0" y="368" type="curve"/>
      <point x="0" y="329"/>
      <point x="10" y="321"/>
      <point x="70" y="320" type="curve"/>
      <point x="85" y="10"/>
      <point x="78" y="-54"/>
      <point x="31" y="-127" type="curve"/>
      <point x="67" y="-159" type="line"/>
    </contour>
    <contour>
      <point x="153" y="407" type="move" name="top"/>
    </contour>
    <contour>
      <point x="153" y="0" type="move" name="bottom"/>
    </contour>
  </outline>
</glyph>
<glyph name="h" format="1">
  <advance width="482"/>
  <unicode hex="0068"/>
  <outline>
    <contour>
      <point x="145" y="-6"/>
      <point x="170" y="-4"/>
      <point x="194" y="0" type="curve"/>
      <point x="180" y="29"/>
      <point x="173" y="103"/>
      <point x="173" y="219" type="curve" smooth="yes"/>
      <point x="173" y="237"/>
      <point x="174" y="267"/>
      <point x="175" y="276" type="curve"/>
      <point x="192" y="290"/>
      <point x="210" y="297"/>
      <point x="238" y="297" type="curve" smooth="yes"/>
      <point x="280" y="297"/>
      <point x="297" y="275"/>
      <point x="297" y="222" type="curve" smooth="yes"/>
      <point x="297" y="145"/>
      <point x="294" y="60"/>
      <point x="290" y="0" type="curve"/>
      <point x="313" y="-4"/>
      <point x="339" y="-6"/>
      <point x="360" y="-6" type="curve" smooth="yes"/>
      <point x="387" y="-6"/>
      <point x="424" y="-4"/>
      <point x="443" y="0" type="curve"/>
      <point x="430" y="29"/>
      <point x="423" y="82"/>
      <point x="423" y="150" type="curve" smooth="yes"/>
      <point x="423" y="181"/>
      <point x="427" y="251"/>
      <point x="427" y="280" type="curve" smooth="yes"/>
      <point x="427" y="364"/>
      <point x="395" y="418"/>
      <point x="310" y="418" type="curve" smooth="yes"/>
      <point x="257" y="418"/>
      <point x="211" y="395"/>
      <point x="176" y="356" type="curve"/>
      <point x="178" y="431"/>
      <point x="183" y="503"/>
      <point x="189" y="547" type="curve"/>
      <point x="130" y="547"/>
      <point x="85" y="541"/>
      <point x="39" y="527" type="curve"/>
      <point x="45" y="468"/>
      <point x="49" y="367"/>
      <point x="49" y="255" type="curve" smooth="yes"/>
      <point x="49" y="171"/>
      <point x="46" y="73"/>
      <point x="42" y="0" type="curve"/>
      <point x="72" y="-4"/>
      <point x="97" y="-6"/>
      <point x="120" y="-6" type="curve" smooth="yes"/>
    </contour>
    <contour>
      <point x="123" y="470" type="move" name="center"/>
    </contour>
    <contour>
      <point x="241" y="0" type="move" name="bottom"/>
    </contour>
    <contour>
      <point x="241" y="407" type="move" name="top"/>
    </contour>
  </outline>
</glyph>
<glyph name="m" format="1">
  <advance width="753"/>
  <unicode hex="006D"/>
  <outline>
    <contour>
      <point x="179" y="-6"/>
      <point x="204" y="-4"/>
      <point x="223" y="0" type="curve"/>
      <point x="210" y="29"/>
      <point x="203" y="82"/>
      <point x="203" y="150" type="curve" smooth="yes"/>
      <point x="203" y="200"/>
      <point x="205" y="243"/>
      <point x="207" y="279" type="curve"/>
      <point x="222" y="291"/>
      <point x="239" y="297"/>
      <point x="263" y="297" type="curve" smooth="yes"/>
      <point x="306" y="297"/>
      <point x="323" y="275"/>
      <point x="323" y="222" type="curve" smooth="yes"/>
      <point x="323" y="143"/>
      <point x="320" y="58"/>
      <point x="316" y="0" type="curve"/>
      <point x="339" y="-4"/>
      <point x="365" y="-6"/>
      <point x="385" y="-6" type="curve" smooth="yes"/>
      <point x="413" y="-6"/>
      <point x="449" y="-4"/>
      <point x="468" y="0" type="curve"/>
      <point x="455" y="29"/>
      <point x="448" y="82"/>
      <point x="448" y="150" type="curve" smooth="yes"/>
      <point x="448" y="180"/>
      <point x="451" y="245"/>
      <point x="452" y="280" type="curve"/>
      <point x="468" y="291"/>
      <point x="485" y="297"/>
      <point x="508" y="297" type="curve" smooth="yes"/>
      <point x="551" y="297"/>
      <point x="568" y="275"/>
      <point x="568" y="222" type="curve" smooth="yes"/>
      <point x="568" y="143"/>
      <point x="565" y="58"/>
      <point x="561" y="0" type="curve"/>
      <point x="584" y="-4"/>
      <point x="610" y="-6"/>
      <point x="630" y="-6" type="curve" smooth="yes"/>
      <point x="658" y="-6"/>
      <point x="694" y="-4"/>
      <point x="713" y="0" type="curve"/>
      <point x="700" y="29"/>
      <point x="693" y="82"/>
      <point x="693" y="150" type="curve" smooth="yes"/>
      <point x="693" y="181"/>
      <point x="697" y="251"/>
      <point x="697" y="280" type="curve" smooth="yes"/>
      <point x="697" y="362"/>
      <point x="665" y="418"/>
      <point x="572" y="418" type="curve" smooth="yes"/>
      <point x="519" y="418"/>
      <point x="474" y="391"/>
      <point x="443" y="347" type="curve"/>
      <point x="427" y="391"/>
      <point x="391" y="418"/>
      <point x="327" y="418" type="curve" smooth="yes"/>
      <point x="278" y="418"/>
      <point x="237" y="395"/>
      <point x="205" y="357" type="curve"/>
      <point x="199" y="393"/>
      <point x="178" y="414"/>
      <point x="136" y="414" type="curve" smooth="yes"/>
      <point x="112" y="414"/>
      <point x="71" y="405"/>
      <point x="39" y="378" type="curve"/>
      <point x="70" y="344"/>
      <point x="78" y="321"/>
      <point x="78" y="213" type="curve" smooth="yes"/>
      <point x="78" y="139"/>
      <point x="75" y="57"/>
      <point x="71" y="0" type="curve"/>
      <point x="94" y="-4"/>
      <point x="132" y="-6"/>
      <point x="157" y="-6" type="curve" smooth="yes"/>
    </contour>
    <contour>
      <point x="377" y="407" type="move" name="top"/>
    </contour>
    <contour>
      <point x="377" y="0" type="move" name="bottom"/>
    </contour>
  </outline>
</glyph>
<glyph name="n" format="1">
  <advance width="511"/>
  <unicode hex="006E"/>
  <outline>
    <contour>
      <point x="180" y="-6"/>
      <point x="207" y="-4"/>
      <point x="226" y="0" type="curve"/>
      <point x="213" y="29"/>
      <point x="206" y="82"/>
      <point x="206" y="150" type="curve" smooth="yes"/>
      <point x="206" y="196"/>
      <point x="207" y="237"/>
      <point x="209" y="271" type="curve"/>
      <point x="224" y="284"/>
      <point x="241" y="290"/>
      <point x="266" y="290" type="curve" smooth="yes"/>
      <point x="307" y="290"/>
      <point x="324" y="268"/>
      <point x="324" y="215" type="curve" smooth="yes"/>
      <point x="324" y="139"/>
      <point x="321" y="56"/>
      <point x="317" y="0" type="curve"/>
      <point x="340" y="-4"/>
      <point x="367" y="-6"/>
      <point x="388" y="-6" type="curve" smooth="yes"/>
      <point x="417" y="-6"/>
      <point x="457" y="-4"/>
      <point x="476" y="0" type="curve"/>
      <point x="463" y="29"/>
      <point x="456" y="82"/>
      <point x="456" y="150" type="curve" smooth="yes"/>
      <point x="456" y="181"/>
      <point x="460" y="251"/>
      <point x="460" y="280" type="curve" smooth="yes"/>
      <point x="460" y="362"/>
      <point x="430" y="418"/>
      <point x="343" y="418" type="curve" smooth="yes"/>
      <point x="290" y="418"/>
      <point x="243" y="394"/>
      <point x="208" y="355" type="curve"/>
      <point x="202" y="392"/>
      <point x="181" y="414"/>
      <point x="137" y="414" type="curve" smooth="yes"/>
      <point x="112" y="414"/>
      <point x="69" y="405"/>
      <point x="35" y="378" type="curve"/>
      <point x="66" y="344"/>
      <point x="74" y="321"/>
      <point x="74" y="213" type="curve" smooth="yes"/>
      <point x="74" y="139"/>
      <point x="71" y="57"/>
      <point x="67" y="0" type="curve"/>
      <point x="90" y="-4"/>
      <point x="131" y="-6"/>
      <point x="158" y="-6" type="curve" smooth="yes"/>
    </contour>
    <contour>
      <point x="266" y="407" type="move" name="top"/>
    </contour>
    <contour>
      <point x="256" y="0" type="move" name="bottom"/>
    </contour>
  </outline>
</glyph>
<glyph name="o" format="1">
  <advance width="503"/>
  <unicode hex="006F"/>
  <outline>
    <contour>
      <point x="376" y="-11"/>
      <point x="478" y="82"/>
      <point x="478" y="215" type="curve" smooth="yes"/>
      <point x="478" y="337"/>
      <point x="393" y="418"/>
      <point x="266" y="418" type="curve" smooth="yes"/>
      <point x="124" y="418"/>
      <point x="25" y="325"/>
      <point x="25" y="192" type="curve" smooth="yes"/>
      <point x="25" y="70"/>
      <point x="108" y="-11"/>
      <point x="231" y="-11" type="curve" smooth="yes"/>
    </contour>
    <contour>
      <point x="194" y="54"/>
      <point x="157" y="103"/>
      <point x="157" y="177" type="curve" smooth="yes"/>
      <point x="157" y="252"/>
      <point x="197" y="299"/>
      <point x="261" y="299" type="curve"/>
      <point x="313" y="283"/>
      <point x="346" y="234"/>
      <point x="346" y="171" type="curve" smooth="yes"/>
      <point x="346" y="97"/>
      <point x="310" y="54"/>
      <point x="249" y="54" type="curve" smooth="yes"/>
    </contour>
    <contour>
      <point x="252" y="0" type="move" name="bottom"/>
    </contour>
    <contour>
      <point x="453" y="10" type="move" name="ogonek"/>
    </contour>
    <contour>
      <point x="252" y="407" type="move" name="top"/>
    </contour>
    <contour>
      <point x="483" y="407" type="move" name="topright"/>
    </contour>
    <contour>
      <point x="252" y="204" type="move" name="center"/>
    </contour>
  </outline>
</glyph>
<glyph name="p" format="1">
  <advance width="519"/>
  <unicode hex="0070"/>
  <outline>
    <contour>
      <point x="119" y="-180"/>
      <point x="164" y="-174"/>
      <point x="210" y="-160" type="curve"/>
      <point x="201" y="-123"/>
      <point x="196" y="-70"/>
      <point x="193" y="0" type="curve"/>
      <point x="213" y="-6"/>
      <point x="236" y="-9"/>
      <point x="260" y="-9" type="curve" smooth="yes"/>
      <point x="403" y="-9"/>
      <point x="486" y="73"/>
      <point x="486" y="212" type="curve" smooth="yes"/>
      <point x="486" y="344"/>
      <point x="427" y="413"/>
      <point x="324" y="413" type="curve" smooth="yes"/>
      <point x="274" y="413"/>
      <point x="228" y="394"/>
      <point x="194" y="362" type="curve"/>
      <point x="186" y="395"/>
      <point x="164" y="414"/>
      <point x="122" y="414" type="curve" smooth="yes"/>
      <point x="100" y="414"/>
      <point x="63" y="405"/>
      <point x="33" y="378" type="curve"/>
      <point x="64" y="344"/>
      <point x="72" y="321"/>
      <point x="72" y="213" type="curve" smooth="yes"/>
      <point x="72" y="49"/>
      <point x="67" y="-104"/>
      <point x="60" y="-180" type="curve"/>
    </contour>
    <contour>
      <point x="233" y="54"/>
      <point x="211" y="64"/>
      <point x="192" y="83" type="curve"/>
      <point x="192" y="112" type="line" smooth="yes"/>
      <point x="192" y="179"/>
      <point x="194" y="237"/>
      <point x="196" y="283" type="curve"/>
      <point x="220" y="297"/>
      <point x="250" y="306"/>
      <point x="278" y="306" type="curve"/>
      <point x="324" y="285"/>
      <point x="352" y="239"/>
      <point x="352" y="177" type="curve" smooth="yes"/>
      <point x="352" y="100"/>
      <point x="317" y="54"/>
      <point x="257" y="54" type="curve" smooth="yes"/>
    </contour>
    <contour>
      <point x="263" y="407" type="move" name="top"/>
    </contour>
    <contour>
      <point x="263" y="0" type="move" name="bottom"/>
    </contour>
  </outline>
</glyph>
<glyph name="s" format="1">
  <advance width="414"/>
  <unicode hex="0073"/>
  <outline>
    <contour>
      <point x="319" y="-11"/>
      <point x="388" y="36"/>
      <point x="388" y="117" type="curve" smooth="yes"/>
      <point x="388" y="253"/>
      <point x="173" y="256"/>
      <point x="173" y="309" type="curve" smooth="yes"/>
      <point x="173" y="321"/>
      <point x="186" y="332"/>
      <point x="203" y="336" type="curve"/>
      <point x="238" y="336"/>
      <point x="291" y="311"/>
      <point x="342" y="271" type="curve"/>
      <point x="357" y="295"/>
      <point x="374" y="361"/>
      <point x="374" y="394" type="curve"/>
      <point x="334" y="408"/>
      <point x="272" y="418"/>
      <point x="215" y="418" type="curve" smooth="yes"/>
      <point x="108" y="418"/>
      <point x="37" y="370"/>
      <point x="37" y="296" type="curve" smooth="yes"/>
      <point x="37" y="144"/>
      <point x="254" y="155"/>
      <point x="254" y="98" type="curve" smooth="yes"/>
      <point x="254" y="76"/>
      <point x="229" y="65"/>
      <point x="183" y="65" type="curve" smooth="yes"/>
      <point x="124" y="65"/>
      <point x="76" y="86"/>
      <point x="50" y="118" type="curve"/>
      <point x="36" y="84"/>
      <point x="31" y="59"/>
      <point x="31" y="25" type="curve"/>
      <point x="73" y="1"/>
      <point x="131" y="-11"/>
      <point x="200" y="-11" type="curve" smooth="yes"/>
    </contour>
    <contour>
      <point x="209" y="407" type="move" name="top"/>
    </contour>
    <contour>
      <point x="200" y="0" type="move" name="bottom"/>
    </contour>
  </outline>
</glyph>
<glyph name="u" format="1">
  <advance width="489"/>
  <unicode hex="0075"/>
  <outline>
    <contour>
      <point x="224" y="-11"/>
      <point x="271" y="11"/>
      <point x="304" y="48" type="curve"/>
      <point x="311" y="23"/>
      <point x="323" y="3"/>
      <point x="343" y="-11" type="curve"/>
      <point x="388" y="-6"/>
      <point x="434" y="12"/>
      <point x="469" y="37" type="curve"/>
      <point x="438" y="76"/>
      <point x="430" y="102"/>
      <point x="430" y="162" type="curve" smooth="yes"/>
      <point x="430" y="197"/>
      <point x="436" y="333"/>
      <point x="442" y="417" type="curve"/>
      <point x="380" y="417"/>
      <point x="333" y="411"/>
      <point x="285" y="397" type="curve"/>
      <point x="298" y="368"/>
      <point x="304" y="324"/>
      <point x="304" y="257" type="curve" smooth="yes"/>
      <point x="304" y="232"/>
      <point x="301" y="182"/>
      <point x="300" y="127" type="curve"/>
      <point x="281" y="113"/>
      <point x="260" y="107"/>
      <point x="234" y="107" type="curve" smooth="yes"/>
      <point x="200" y="107"/>
      <point x="186" y="123"/>
      <point x="186" y="172" type="curve" smooth="yes"/>
      <point x="186" y="270"/>
      <point x="188" y="365"/>
      <point x="192" y="417" type="curve"/>
      <point x="130" y="417"/>
      <point x="83" y="411"/>
      <point x="35" y="397" type="curve"/>
      <point x="48" y="368"/>
      <point x="54" y="324"/>
      <point x="54" y="257" type="curve" smooth="yes"/>
      <point x="54" y="226"/>
      <point x="50" y="156"/>
      <point x="50" y="127" type="curve" smooth="yes"/>
      <point x="50" y="35"/>
      <point x="92" y="-11"/>
      <point x="177" y="-11" type="curve" smooth="yes"/>
    </contour>
    <contour>
      <point x="402" y="0" type="move" name="ogonek"/>
    </contour>
    <contour>
      <point x="249" y="407" type="move" name="top"/>
    </contour>
    <contour>
      <point x="473" y="407" type="move" name="topright"/>
    </contour>
    <contour>
      <point x="249" y="0" type="move" name="bottom"/>
    </contour>
  </outline>
</glyph>
<glyph name="w" format="1">
  <advance width="712"/>
  <unicode hex="0077"/>
  <outline>
    <contour>
      <point x="306" y="24" type="line"/>
      <point x="322" y="81"/>
      <point x="341" y="146"/>
      <point x="361" y="211" type="curve"/>
      <point x="374" y="166"/>
      <point x="389" y="121"/>
      <point x="405" y="73" type="curve" smooth="yes"/>
      <point x="427" y="11"/>
      <point x="457" y="-9"/>
      <point x="491" y="-9" type="curve"/>
      <point x="579" y="24" type="line"/>
      <point x="613" y="145"/>
      <point x="663" y="307"/>
      <point x="707" y="413" type="curve"/>
      <point x="670" y="413"/>
      <point x="633" y="411"/>
      <point x="593" y="402" type="curve"/>
      <point x="606" y="370"/>
      <point x="594" y="321"/>
      <point x="527" y="107" type="curve"/>
      <point x="478" y="245"/>
      <point x="442" y="356"/>
      <point x="432" y="413" type="curve"/>
      <point x="375" y="413"/>
      <point x="321" y="408"/>
      <point x="278" y="392" type="curve"/>
      <point x="293" y="378"/>
      <point x="310" y="349"/>
      <point x="324" y="315" type="curve"/>
      <point x="313" y="271"/>
      <point x="293" y="204"/>
      <point x="259" y="95" type="curve"/>
      <point x="234" y="158"/>
      <point x="170" y="351"/>
      <point x="159" y="413" type="curve"/>
      <point x="101" y="413"/>
      <point x="48" y="408"/>
      <point x="5" y="392" type="curve"/>
      <point x="26" y="372"/>
      <point x="50" y="321"/>
      <point x="67" y="272" type="curve" smooth="yes"/>
      <point x="89" y="208"/>
      <point x="108" y="144"/>
      <point x="132" y="73" type="curve" smooth="yes"/>
      <point x="153" y="11"/>
      <point x="184" y="-9"/>
      <point x="218" y="-9" type="curve"/>
    </contour>
    <contour>
      <point x="356" y="407" type="move" name="top"/>
    </contour>
    <contour>
      <point x="356" y="0" type="move" name="bottom"/>
    </contour>
  </outline>
</glyph>
<glyph name="y" format="1">
  <advance width="491"/>
  <unicode hex="0079"/>
  <outline>
    <contour>
      <point x="345" y="-180"/>
      <point x="440" y="-126"/>
      <point x="440" y="0" type="curve" smooth="yes"/>
      <point x="440" y="37"/>
      <point x="436" y="93"/>
      <point x="436" y="167" type="curve" smooth="yes"/>
      <point x="436" y="279"/>
      <point x="438" y="359"/>
      <point x="443" y="417" type="curve"/>
      <point x="384" y="417"/>
      <point x="339" y="411"/>
      <point x="293" y="397" type="curve"/>
      <point x="305" y="372"/>
      <point x="312" y="320"/>
      <point x="312" y="257" type="curve" smooth="yes"/>
      <point x="312" y="238"/>
      <point x="313" y="209"/>
      <point x="314" y="148" type="curve"/>
      <point x="296" y="131"/>
      <point x="276" y="124"/>
      <point x="246" y="124" type="curve" smooth="yes"/>
      <point x="204" y="124"/>
      <point x="187" y="146"/>
      <point x="187" y="199" type="curve" smooth="yes"/>
      <point x="187" y="280"/>
      <point x="189" y="363"/>
      <point x="193" y="417" type="curve"/>
      <point x="147" y="417"/>
      <point x="69" y="408"/>
      <point x="41" y="396" type="curve"/>
      <point x="54" y="371"/>
      <point x="61" y="327"/>
      <point x="61" y="269" type="curve" smooth="yes"/>
      <point x="61" y="239"/>
      <point x="57" y="170"/>
      <point x="57" y="142" type="curve" smooth="yes"/>
      <point x="57" y="87"/>
      <point x="71" y="44"/>
      <point x="105" y="22" type="curve"/>
      <point x="57" y="-25"/>
      <point x="29" y="-88"/>
      <point x="29" y="-129" type="curve"/>
      <point x="69" y="-161"/>
      <point x="137" y="-180"/>
      <point x="217" y="-180" type="curve" smooth="yes"/>
    </contour>
    <contour>
      <point x="187" y="-106"/>
      <point x="154" y="-94"/>
      <point x="130" y="-71" type="curve"/>
      <point x="136" y="-46"/>
      <point x="147" y="-20"/>
      <point x="163" y="4" type="curve"/>
      <point x="226" y="3"/>
      <point x="277" y="26"/>
      <point x="315" y="74" type="curve"/>
      <point x="315" y="13" type="line" smooth="yes"/>
      <point x="315" y="-65"/>
      <point x="283" y="-106"/>
      <point x="220" y="-106" type="curve" smooth="yes"/>
    </contour>
    <contour>
      <point x="240" y="407" type="move" name="top"/>
    </contour>
    <contour>
      <point x="240" y="0" type="move" name="bottom"/>
    </contour>
  </outline>
</glyph>
<glyph name="braceleft" format="1">
  <advance width="368"/>
  <unicode hex="007B"/>
  <outline>
    <contour>
      <point x="344" y="-104"/>
      <point x="346" y="-90"/>
      <point x="346" y="-77" type="curve" smooth="yes"/>
      <point x="346" y="-54"/>
      <point x="344" y="-33"/>
      <point x="341" y="-9" type="curve"/>
      <point x="299" y="-15"/>
      <point x="264" y="-18"/>
      <point x="235" y="-18" type="curve"/>
      <point x="220" y="-9"/>
      <point x="207" y="28"/>
      <point x="207" y="79" type="curve" smooth="yes"/>
      <point x="207" y="104"/>
      <point x="208" y="130"/>
      <point x="208" y="154" type="curve" smooth="yes"/>
      <point x="208" y="208"/>
      <point x="201" y="254"/>
      <point x="155" y="262" type="curve"/>
      <point x="155" y="266" type="line"/>
      <point x="201" y="274"/>
      <point x="208" y="320"/>
      <point x="208" y="374" type="curve" smooth="yes"/>
      <point x="208" y="398"/>
      <point x="207" y="424"/>
      <point x="207" y="449" type="curve" smooth="yes"/>
      <point x="207" y="500"/>
      <point x="220" y="537"/>
      <point x="235" y="546" type="curve"/>
      <point x="264" y="546"/>
      <point x="299" y="543"/>
      <point x="341" y="537" type="curve"/>
      <point x="344" y="561"/>
      <point x="346" y="582"/>
      <point x="346" y="605" type="curve" smooth="yes"/>
      <point x="346" y="618"/>
      <point x="344" y="632"/>
      <point x="341" y="647" type="curve"/>
      <point x="192" y="647"/>
      <point x="69" y="614"/>
      <point x="69" y="484" type="curve" smooth="yes"/>
      <point x="69" y="433"/>
      <point x="97" y="370"/>
      <point x="97" y="331" type="curve" smooth="yes"/>
      <point x="97" y="303"/>
      <point x="78" y="295"/>
      <point x="32" y="294" type="curve"/>
      <point x="32" y="234" type="line"/>
      <point x="78" y="233"/>
      <point x="97" y="225"/>
      <point x="97" y="197" type="curve" smooth="yes"/>
      <point x="97" y="157"/>
      <point x="69" y="95"/>
      <point x="69" y="44" type="curve" smooth="yes"/>
      <point x="69" y="-86"/>
      <point x="192" y="-119"/>
      <point x="341" y="-119" type="curve"/>
    </contour>
  </outline>
</glyph>
<glyph name="asciitilde" format="1">
  <advance width="533"/>
  <unicode hex="007E"/>
  <outline>
    <contour>
      <point x="423" y="194"/>
      <point x="465" y="219"/>
      <point x="478" y="302" type="curve"/>
      <point x="454" y="314"/>
      <point x="425" y="322"/>
      <point x="399" y="324" type="curve"/>
      <point x="390" y="297"/>
      <point x="373" y="287"/>
      <point x="349" y="287" type="curve" smooth="yes"/>
      <point x="286" y="287"/>
      <point x="224" y="336"/>
      <point x="161" y="336" type="curve" smooth="yes"/>
      <point x="110" y="336"/>
      <point x="68" y="311"/>
      <point x="55" y="228" type="curve"/>
      <point x="79" y="216"/>
      <point x="108" y="208"/>
      <point x="134" y="206" type="curve"/>
      <point x="143" y="233"/>
      <point x="160" y="243"/>
      <point x="184" y="243" type="curve" smooth="yes"/>
      <point x="247" y="243"/>
      <point x="309" y="194"/>
      <point x="372" y="194" type="curve" smooth="yes"/>
    </contour>
  </outline>
</glyph>
<glyph name="sterling" format="1">
  <advance width="516"/>
  <unicode hex="00A3"/>
  <outline>
    <contour>
      <point x="461" y="18"/>
      <point x="470" y="85"/>
      <point x="470" y="136" type="curve"/>
      <point x="429" y="120"/>
      <point x="360" y="110"/>
      <point x="292" y="110" type="curve" smooth="yes"/>
      <point x="256" y="110"/>
      <point x="215" y="112"/>
      <point x="184" y="114" type="curve"/>
      <point x="209" y="153"/>
      <point x="217" y="196"/>
      <point x="217" y="238" type="curve" smooth="yes"/>
      <point x="217" y="294"/>
      <point x="204" y="347"/>
      <point x="204" y="384" type="curve" smooth="yes"/>
      <point x="204" y="423"/>
      <point x="224" y="449"/>
      <point x="265" y="455" type="curve"/>
      <point x="316" y="443"/>
      <point x="359" y="420"/>
      <point x="414" y="375" type="curve"/>
      <point x="438" y="405"/>
      <point x="459" y="468"/>
      <point x="459" y="509" type="curve"/>
      <point x="413" y="525"/>
      <point x="343" y="533"/>
      <point x="270" y="533" type="curve" smooth="yes"/>
      <point x="146" y="533"/>
      <point x="67" y="478"/>
      <point x="67" y="391" type="curve" smooth="yes"/>
      <point x="67" y="297"/>
      <point x="114" y="233"/>
      <point x="114" y="169" type="curve" smooth="yes"/>
      <point x="114" y="130"/>
      <point x="96" y="92"/>
      <point x="37" y="46" type="curve"/>
      <point x="37" y="0" type="line"/>
      <point x="75" y="2"/>
      <point x="134" y="3"/>
      <point x="197" y="3" type="curve" smooth="yes"/>
      <point x="303" y="3"/>
      <point x="418" y="0"/>
      <point x="449" y="-5" type="curve"/>
    </contour>
    <component base="uni0335"/>
  </outline>
</glyph>
<glyph name="currency" format="1">
  <advance width="571"/>
  <unicode hex="00A4"/>
  <outline>
    <contour>
      <point x="480" y="399"/>
      <point x="513" y="430"/>
      <point x="538" y="452" type="curve"/>
      <point x="522" y="482"/>
      <point x="507" y="498"/>
      <point x="474" y="516" type="curve"/>
      <point x="461" y="497"/>
      <point x="433" y="464"/>
      <point x="389" y="416" type="curve"/>
      <point x="442" y="363" type="line"/>
    </contour>
    <contour>
      <point x="109" y="30"/>
      <point x="137" y="62"/>
      <point x="178" y="106" type="curve"/>
      <point x="124" y="160" type="line"/>
      <point x="88" y="126"/>
      <point x="56" y="97"/>
      <point x="32" y="76" type="curve"/>
      <point x="48" y="49"/>
      <point x="67" y="25"/>
      <point x="98" y="10" type="curve"/>
    </contour>
    <contour>
      <point x="501" y="26"/>
      <point x="523" y="44"/>
      <point x="538" y="76" type="curve"/>
      <point x="519" y="87"/>
      <point x="487" y="115"/>
      <point x="442" y="157" type="curve"/>
      <point x="388" y="103" type="line"/>
      <point x="423" y="67"/>
      <point x="452" y="34"/>
      <point x="473" y="10" type="curve"/>
    </contour>
    <contour>
      <point x="185" y="421" type="line"/>
      <point x="149" y="458"/>
      <point x="118" y="491"/>
      <point x="96" y="516" type="curve"/>
      <point x="67" y="500"/>
      <point x="49" y="484"/>
      <point x="32" y="452" type="curve"/>
      <point x="51" y="439"/>
      <point x="84" y="411"/>
      <point x="131" y="367" type="curve"/>
    </contour>
    <component base="o" xOffset="35" yOffset="61"/>
  </outline>
</glyph>
<glyph name="section" format="1">
  <advance width="468"/>
  <unicode hex="00A7"/>
  <outline>
    <contour>
      <point x="352" y="-188"/>
      <point x="423" y="-139"/>
      <point x="423" y="-49" type="curve" smooth="yes"/>
      <point x="423" y="-1"/>
      <point x="402" y="37"/>
      <point x="359" y="68" type="curve"/>
      <point x="402" y="92"/>
      <point x="423" y="130"/>
      <point x="423" y="179" type="curve" smooth="yes"/>
      <point x="423" y="343"/>
      <point x="179" y="337"/>
      <point x="179" y="414" type="curve" smooth="yes"/>
      <point x="179" y="432"/>
      <point x="192" y="448"/>
      <point x="211" y="452" type="curve"/>
      <point x="249" y="452"/>
      <point x="308" y="423"/>
      <point x="365" y="377" type="curve"/>
      <point x="389" y="406"/>
      <point x="409" y="466"/>
      <point x="409" y="508" type="curve"/>
      <point x="367" y="522"/>
      <point x="312" y="530"/>
      <point x="251" y="530" type="curve" smooth="yes"/>
      <point x="129" y="530"/>
      <point x="47" y="472"/>
      <point x="47" y="387" type="curve" smooth="yes"/>
      <point x="47" y="340"/>
      <point x="69" y="302"/>
      <point x="115" y="270" type="curve"/>
      <point x="71" y="245"/>
      <point x="47" y="205"/>
      <point x="47" y="159" type="curve" smooth="yes"/>
      <point x="47" y="3"/>
      <point x="291" y="-2"/>
      <point x="291" y="-71" type="curve" smooth="yes"/>
      <point x="291" y="-99"/>
      <point x="264" y="-115"/>
      <point x="215" y="-115" type="curve" smooth="yes"/>
      <point x="151" y="-115"/>
      <point x="92" y="-98"/>
      <point x="60" y="-70" type="curve"/>
      <point x="49" y="-96"/>
      <point x="45" y="-119"/>
      <point x="45" y="-155" type="curve"/>
      <point x="92" y="-176"/>
      <point x="153" y="-188"/>
      <point x="221" y="-188" type="curve" smooth="yes"/>
    </contour>
    <contour>
      <point x="199" y="146"/>
      <point x="179" y="162"/>
      <point x="179" y="186" type="curve" smooth="yes"/>
      <point x="179" y="203"/>
      <point x="189" y="217"/>
      <point x="206" y="223" type="curve"/>
      <point x="271" y="193"/>
      <point x="291" y="178"/>
      <point x="291" y="157" type="curve" smooth="yes"/>
      <point x="291" y="139"/>
      <point x="281" y="126"/>
      <point x="261" y="119" type="curve"/>
    </contour>
  </outline>
</glyph>
<glyph name="copyright" format="1">
  <advance width="717"/>
  <unicode hex="00A9"/>
  <outline>
    <contour>
      <point x="528" y="-20"/>
      <point x="666" y="118"/>
      <point x="666" y="287" type="curve" smooth="yes"/>
      <point x="666" y="456"/>
      <point x="528" y="594"/>
      <point x="359" y="594" type="curve" smooth="yes"/>
      <point x="190" y="594"/>
      <point x="52" y="456"/>
      <point x="52" y="287" type="curve" smooth="yes"/>
      <point x="52" y="118"/>
      <point x="190" y="-20"/>
      <point x="359" y="-20" type="curve" smooth="yes"/>
    </contour>
    <contour>
      <point x="406" y="114"/>
      <point x="464" y="137"/>
      <point x="494" y="172" type="curve"/>
      <point x="487" y="201" type="line"/>
      <point x="459" y="185"/>
      <point x="418" y="174"/>
      <point x="375" y="174" type="curve" smooth="yes"/>
      <point x="310" y="174"/>
      <point x="265" y="211"/>
      <point x="265" y="296" type="curve" smooth="yes"/>
      <point x="265" y="356"/>
      <point x="302" y="414"/>
      <point x="348" y="426" type="curve"/>
      <point x="373" y="426"/>
      <point x="422" y="404"/>
      <point x="460" y="378" type="curve"/>
      <point x="473" y="392"/>
      <point x="484" y="428"/>
      <point x="484" y="452" type="curve"/>
      <point x="457" y="463"/>
      <point x="421" y="468"/>
      <point x="381" y="468" type="curve" smooth="yes"/>
      <point x="267" y="468"/>
      <point x="187" y="390"/>
      <point x="187" y="278" type="curve" smooth="yes"/>
      <point x="187" y="173"/>
      <point x="247" y="114"/>
      <point x="351" y="114" type="curve" smooth="yes"/>
    </contour>
    <contour>
      <point x="218" y="31"/>
      <point x="103" y="147"/>
      <point x="103" y="287" type="curve" smooth="yes"/>
      <point x="103" y="428"/>
      <point x="218" y="543"/>
      <point x="359" y="543" type="curve" smooth="yes"/>
      <point x="499" y="543"/>
      <point x="615" y="428"/>
      <point x="615" y="287" type="curve" smooth="yes"/>
      <point x="615" y="147"/>
      <point x="499" y="31"/>
      <point x="359" y="31" type="curve" smooth="yes"/>
    </contour>
  </outline>
</glyph>
<glyph name="ordfeminine" format="1">
  <advance width="345"/>
  <unicode hex="00AA"/>
  <outline>
    <contour>
      <point x="133" y="293"/>
      <point x="168" y="304"/>
      <point x="200" y="323" type="curve"/>
      <point x="206" y="310"/>
      <point x="216" y="301"/>
      <point x="229" y="293" type="curve"/>
      <point x="259" y="295"/>
      <point x="290" y="304"/>
      <point x="314" y="318" type="curve"/>
      <point x="293" y="339"/>
      <point x="287" y="354"/>
      <point x="287" y="386" type="curve" smooth="yes"/>
      <point x="287" y="416"/>
      <point x="293" y="450"/>
      <point x="293" y="485" type="curve" smooth="yes"/>
      <point x="293" y="541"/>
      <point x="253" y="572"/>
      <point x="180" y="572" type="curve" smooth="yes"/>
      <point x="128" y="572"/>
      <point x="74" y="546"/>
      <point x="44" y="507" type="curve"/>
      <point x="56" y="454" type="line"/>
      <point x="78" y="473"/>
      <point x="112" y="484"/>
      <point x="143" y="484" type="curve" smooth="yes"/>
      <point x="175" y="484"/>
      <point x="191" y="473"/>
      <point x="195" y="446" type="curve"/>
      <point x="85" y="438"/>
      <point x="31" y="407"/>
      <point x="31" y="354" type="curve" smooth="yes"/>
      <point x="31" y="319"/>
      <point x="52" y="293"/>
      <point x="104" y="293" type="curve" smooth="yes"/>
    </contour>
    <contour>
      <point x="139" y="350"/>
      <point x="133" y="362"/>
      <point x="133" y="373" type="curve" smooth="yes"/>
      <point x="133" y="394"/>
      <point x="155" y="407"/>
      <point x="195" y="411" type="curve"/>
      <point x="194" y="394"/>
      <point x="191" y="382"/>
      <point x="191" y="366" type="curve" smooth="yes"/>
      <point x="191" y="359" type="line"/>
      <point x="177" y="351"/>
      <point x="161" y="345"/>
      <point x="147" y="344" type="curve"/>
    </contour>
  </outline>
</glyph>
<glyph name="logicalnot" format="1">
  <advance width="533"/>
  <unicode hex="00AC"/>
  <outline>
    <contour>
      <point x="445" y="54"/>
      <point x="462" y="56"/>
      <point x="478" y="59" type="curve"/>
      <point x="474" y="144"/>
      <point x="473" y="214"/>
      <point x="473" y="315" type="curve"/>
      <point x="404" y="312"/>
      <point x="334" y="310"/>
      <point x="267" y="310" type="curve" smooth="yes"/>
      <point x="198" y="310"/>
      <point x="130" y="312"/>
      <point x="60" y="315" type="curve"/>
      <point x="57" y="298"/>
      <point x="55" y="280"/>
      <point x="55" y="265" type="curve" smooth="yes"/>
      <point x="55" y="249"/>
      <point x="57" y="232"/>
      <point x="60" y="216" type="curve"/>
      <point x="130" y="219"/>
      <point x="198" y="221"/>
      <point x="267" y="221" type="curve" smooth="yes"/>
      <point x="306" y="221"/>
      <point x="345" y="221"/>
      <point x="384" y="219" type="curve"/>
      <point x="384" y="166"/>
      <point x="381" y="101"/>
      <point x="379" y="59" type="curve"/>
      <point x="396" y="56"/>
      <point x="414" y="54"/>
      <point x="429" y="54" type="curve" smooth="yes"/>
    </contour>
  </outline>
</glyph>
<glyph name="registered" format="1">
  <advance width="537"/>
  <unicode hex="00AE"/>
  <outline>
    <contour>
      <point x="398" y="218"/>
      <point x="504" y="324"/>
      <point x="504" y="454" type="curve" smooth="yes"/>
      <point x="504" y="584"/>
      <point x="398" y="690"/>
      <point x="268" y="690" type="curve" smooth="yes"/>
      <point x="138" y="690"/>
      <point x="32" y="584"/>
      <point x="32" y="454" type="curve" smooth="yes"/>
      <point x="32" y="324"/>
      <point x="138" y="218"/>
      <point x="268" y="218" type="curve" smooth="yes"/>
    </contour>
    <contour>
      <point x="160" y="257"/>
      <point x="71" y="346"/>
      <point x="71" y="454" type="curve" smooth="yes"/>
      <point x="71" y="562"/>
      <point x="160" y="651"/>
      <point x="268" y="651" type="curve" smooth="yes"/>
      <point x="376" y="651"/>
      <point x="465" y="562"/>
      <point x="465" y="454" type="curve" smooth="yes"/>
      <point x="465" y="346"/>
      <point x="376" y="257"/>
      <point x="268" y="257" type="curve" smooth="yes"/>
    </contour>
    <contour>
      <point x="211" y="323"/>
      <point x="224" y="324"/>
      <point x="235" y="326" type="curve"/>
      <point x="230" y="339"/>
      <point x="227" y="370"/>
      <point x="226" y="418" type="curve"/>
      <point x="241" y="416"/>
      <point x="250" y="416"/>
      <point x="267" y="416" type="curve"/>
      <point x="291" y="374"/>
      <point x="309" y="339"/>
      <point x="316" y="323" type="curve"/>
      <point x="347" y="323"/>
      <point x="372" y="325"/>
      <point x="397" y="333" type="curve"/>
      <point x="377" y="348"/>
      <point x="354" y="386"/>
      <point x="331" y="430" type="curve"/>
      <point x="363" y="446"/>
      <point x="383" y="472"/>
      <point x="383" y="504" type="curve" smooth="yes"/>
      <point x="383" y="560"/>
      <point x="342" y="592"/>
      <point x="265" y="592" type="curve" smooth="yes"/>
      <point x="224" y="592"/>
      <point x="179" y="586"/>
      <point x="155" y="578" type="curve"/>
      <point x="161" y="564"/>
      <point x="164" y="528"/>
      <point x="164" y="472" type="curve" smooth="yes"/>
      <point x="164" y="422"/>
      <point x="161" y="358"/>
      <point x="158" y="326" type="curve"/>
      <point x="172" y="324"/>
      <point x="187" y="323"/>
      <point x="199" y="323" type="curve" smooth="yes"/>
    </contour>
    <contour>
      <point x="267" y="451"/>
      <point x="246" y="455"/>
      <point x="226" y="460" type="curve"/>
      <point x="229" y="548" type="line"/>
      <point x="237" y="549"/>
      <point x="245" y="550"/>
      <point x="253" y="550" type="curve" smooth="yes"/>
      <point x="292" y="550"/>
      <point x="316" y="535"/>
      <point x="316" y="500" type="curve" smooth="yes"/>
      <point x="316" y="476"/>
      <point x="299" y="461"/>
      <point x="279" y="451" type="curve"/>
    </contour>
  </outline>
</glyph>
<glyph name="degree" format="1">
  <advance width="360"/>
  <unicode hex="00B0"/>
  <outline>
    <contour>
      <point x="263" y="345"/>
      <point x="329" y="404"/>
      <point x="329" y="489" type="curve" smooth="yes"/>
      <point x="329" y="566"/>
      <point x="274" y="617"/>
      <point x="195" y="617" type="curve" smooth="yes"/>
      <point x="99" y="617"/>
      <point x="31" y="558"/>
      <point x="31" y="475" type="curve" smooth="yes"/>
      <point x="31" y="398"/>
      <point x="87" y="345"/>
      <point x="169" y="345" type="curve" smooth="yes"/>
    </contour>
    <contour>
      <point x="142" y="411"/>
      <point x="117" y="443"/>
      <point x="117" y="492" type="curve" smooth="yes"/>
      <point x="117" y="537"/>
      <point x="146" y="571"/>
      <point x="185" y="571" type="curve"/>
      <point x="220" y="564"/>
      <point x="241" y="534"/>
      <point x="241" y="489" type="curve" smooth="yes"/>
      <point x="241" y="441"/>
      <point x="217" y="411"/>
      <point x="178" y="411" type="curve" smooth="yes"/>
    </contour>
  </outline>
</glyph>
<glyph name="paragraph" format="1">
  <advance width="450"/>
  <unicode hex="00B6"/>
  <outline>
    <contour>
      <point x="336" y="-6"/>
      <point x="366" y="-4"/>
      <point x="401" y="0" type="curve"/>
      <point x="395" y="57"/>
      <point x="390" y="170"/>
      <point x="390" y="262" type="curve" smooth="yes"/>
      <point x="390" y="390"/>
      <point x="394" y="473"/>
      <point x="403" y="505" type="curve"/>
      <point x="364" y="519"/>
      <point x="293" y="531"/>
      <point x="225" y="531" type="curve" smooth="yes"/>
      <point x="96" y="531"/>
      <point x="21" y="483"/>
      <point x="21" y="368" type="curve" smooth="yes"/>
      <point x="21" y="285"/>
      <point x="67" y="223"/>
      <point x="123" y="189" type="curve"/>
      <point x="154" y="189"/>
      <point x="203" y="203"/>
      <point x="254" y="223" type="curve"/>
      <point x="252" y="109"/>
      <point x="247" y="34"/>
      <point x="238" y="0" type="curve"/>
      <point x="262" y="-4"/>
      <point x="286" y="-6"/>
      <point x="309" y="-6" type="curve" smooth="yes"/>
    </contour>
  </outline>
</glyph>
<glyph name="ordmasculine" format="1">
  <advance width="393"/>
  <unicode hex="00BA"/>
  <outline>
    <contour>
      <point x="282" y="293"/>
      <point x="351" y="353"/>
      <point x="351" y="440" type="curve" smooth="yes"/>
      <point x="351" y="519"/>
      <point x="294" y="572"/>
      <point x="206" y="572" type="curve" smooth="yes"/>
      <point x="110" y="572"/>
      <point x="42" y="511"/>
      <point x="42" y="425" type="curve" smooth="yes"/>
      <point x="42" y="346"/>
      <point x="98" y="293"/>
      <point x="183" y="293" type="curve" smooth="yes"/>
    </contour>
    <contour>
      <point x="159" y="338"/>
      <point x="135" y="368"/>
      <point x="135" y="412" type="curve" smooth="yes"/>
      <point x="135" y="460"/>
      <point x="161" y="489"/>
      <point x="203" y="489" type="curve"/>
      <point x="237" y="479"/>
      <point x="259" y="450"/>
      <point x="259" y="411" type="curve" smooth="yes"/>
      <point x="259" y="365"/>
      <point x="235" y="338"/>
      <point x="194" y="338" type="curve" smooth="yes"/>
    </contour>
  </outline>
</glyph>
<glyph name="AE" format="1">
  <advance width="709"/>
  <unicode hex="00C6"/>
  <outline>
    <contour>
      <point x="68" y="-4"/>
      <point x="83" y="-2"/>
      <point x="100" y="2" type="curve"/>
      <point x="109" y="30"/>
      <point x="124" y="72"/>
      <point x="142" y="120" type="curve"/>
      <point x="163" y="123"/>
      <point x="195" y="124"/>
      <point x="235" y="124" type="curve" smooth="yes"/>
      <point x="272" y="124"/>
      <point x="314" y="123"/>
      <point x="350" y="121" type="curve"/>
      <point x="368" y="73"/>
      <point x="383" y="30"/>
      <point x="392" y="2" type="curve"/>
      <point x="423" y="4"/>
      <point x="475" y="5"/>
      <point x="527" y="5" type="curve" smooth="yes"/>
      <point x="584" y="5"/>
      <point x="644" y="3"/>
      <point x="683" y="-3" type="curve"/>
      <point x="696" y="19"/>
      <point x="704" y="88"/>
      <point x="704" y="133" type="curve"/>
      <point x="654" y="116"/>
      <point x="593" y="107"/>
      <point x="501" y="107" type="curve"/>
      <point x="487" y="141"/>
      <point x="471" y="181"/>
      <point x="455" y="223" type="curve"/>
      <point x="510" y="223"/>
      <point x="558" y="221"/>
      <point x="619" y="216" type="curve"/>
      <point x="621" y="233"/>
      <point x="623" y="251"/>
      <point x="623" y="266" type="curve" smooth="yes"/>
      <point x="623" y="282"/>
      <point x="621" y="299"/>
      <point x="619" y="315" type="curve"/>
      <point x="579" y="308"/>
      <point x="552" y="304"/>
      <point x="477" y="304" type="curve" smooth="yes"/>
      <point x="460" y="304"/>
      <point x="442" y="304"/>
      <point x="424" y="305" type="curve"/>
      <point x="385" y="412" type="line"/>
      <point x="410" y="415"/>
      <point x="440" y="418"/>
      <point x="467" y="418" type="curve" smooth="yes"/>
      <point x="521" y="418"/>
      <point x="582" y="409"/>
      <point x="619" y="391" type="curve"/>
      <point x="632" y="411"/>
      <point x="640" y="482"/>
      <point x="640" y="527" type="curve"/>
      <point x="585" y="522"/>
      <point x="502" y="520"/>
      <point x="422" y="520" type="curve" smooth="yes"/>
      <point x="339" y="520"/>
      <point x="257" y="522"/>
      <point x="208" y="527" type="curve"/>
      <point x="169" y="409"/>
      <point x="44" y="75"/>
      <point x="3" y="2" type="curve"/>
      <point x="20" y="-2"/>
      <point x="38" y="-4"/>
      <point x="55" y="-4" type="curve" smooth="yes"/>
    </contour>
    <contour>
      <point x="241" y="203"/>
      <point x="205" y="204"/>
      <point x="173" y="206" type="curve"/>
      <point x="198" y="273"/>
      <point x="225" y="343"/>
      <point x="246" y="395" type="curve"/>
      <point x="267" y="346"/>
      <point x="293" y="276"/>
      <point x="319" y="205" type="curve"/>
      <point x="304" y="204"/>
      <point x="288" y="203"/>
      <point x="273" y="203" type="curve" smooth="yes"/>
    </contour>
    <contour>
      <point x="360" y="527" type="move" name="top"/>
    </contour>
    <contour>
      <point x="360" y="0" type="move" name="bottom"/>
    </contour>
  </outline>
</glyph>
<glyph name="Thorn" format="1">
  <advance width="500"/>
  <unicode hex="00DE"/>
  <outline>
    <contour>
      <point x="157" y="-6"/>
      <point x="181" y="-4"/>
      <point x="204" y="0" type="curve"/>
      <point x="198" y="15"/>
      <point x="194" y="43"/>
      <point x="192" y="84" type="curve"/>
      <point x="209" y="81"/>
      <point x="227" y="80"/>
      <point x="246" y="80" type="curve" smooth="yes"/>
      <point x="383" y="80"/>
      <point x="478" y="160"/>
      <point x="478" y="276" type="curve" smooth="yes"/>
      <point x="478" y="389"/>
      <point x="399" y="452"/>
      <point x="256" y="452" type="curve" smooth="yes"/>
      <point x="235" y="452"/>
      <point x="214" y="451"/>
      <point x="194" y="449" type="curve"/>
      <point x="195" y="479"/>
      <point x="197" y="506"/>
      <point x="199" y="527" type="curve"/>
      <point x="171" y="531"/>
      <point x="147" y="533"/>
      <point x="126" y="533" type="curve" smooth="yes"/>
      <point x="99" y="533"/>
      <point x="71" y="531"/>
      <point x="47" y="527" type="curve"/>
      <point x="57" y="497"/>
      <point x="63" y="414"/>
      <point x="63" y="292" type="curve" smooth="yes"/>
      <point x="63" y="197"/>
      <point x="57" y="73"/>
      <point x="52" y="0" type="curve"/>
      <point x="83" y="-4"/>
      <point x="110" y="-6"/>
      <point x="134" y="-6" type="curve" smooth="yes"/>
    </contour>
    <contour>
      <point x="261" y="151"/>
      <point x="226" y="158"/>
      <point x="189" y="169" type="curve"/>
      <point x="187" y="235"/>
      <point x="187" y="297"/>
      <point x="191" y="362" type="curve"/>
      <point x="206" y="365"/>
      <point x="221" y="367"/>
      <point x="235" y="367" type="curve" smooth="yes"/>
      <point x="304" y="367"/>
      <point x="344" y="337"/>
      <point x="344" y="268" type="curve" smooth="yes"/>
      <point x="344" y="214"/>
      <point x="317" y="171"/>
      <point x="284" y="151" type="curve"/>
    </contour>
    <contour>
      <point x="250" y="527" type="move" name="top"/>
    </contour>
    <contour>
      <point x="250" y="0" type="move" name="bottom"/>
    </contour>
  </outline>
</glyph>
<glyph name="germandbls" format="1">
  <advance width="558"/>
  <unicode hex="00DF"/>
  <outline>
    <contour>
      <point x="131" y="-99"/>
      <point x="168" y="-52"/>
      <point x="180" y="13" type="curve"/>
      <point x="218" y="-3"/>
      <point x="262" y="-11"/>
      <point x="307" y="-11" type="curve" smooth="yes"/>
      <point x="450" y="-11"/>
      <point x="527" y="49"/>
      <point x="527" y="159" type="curve" smooth="yes"/>
      <point x="527" y="235"/>
      <point x="469" y="299"/>
      <point x="387" y="311" type="curve"/>
      <point x="432" y="350" type="line" smooth="yes"/>
      <point x="486" y="400"/>
      <point x="508" y="434"/>
      <point x="508" y="472" type="curve" smooth="yes"/>
      <point x="508" y="501"/>
      <point x="497" y="530"/>
      <point x="478" y="546" type="curve"/>
      <point x="443" y="525"/>
      <point x="390" y="516"/>
      <point x="301" y="516" type="curve" smooth="yes"/>
      <point x="211" y="516"/>
      <point x="141" y="520"/>
      <point x="106" y="527" type="curve"/>
      <point x="77" y="488"/>
      <point x="52" y="449"/>
      <point x="52" y="369" type="curve" smooth="yes"/>
      <point x="52" y="262"/>
      <point x="61" y="161"/>
      <point x="61" y="98" type="curve" smooth="yes"/>
      <point x="61" y="-35"/>
      <point x="50" y="-80"/>
      <point x="20" y="-130" type="curve"/>
      <point x="54" y="-159" type="line"/>
    </contour>
    <contour>
      <point x="249" y="64"/>
      <point x="211" y="75"/>
      <point x="182" y="95" type="curve"/>
      <point x="181" y="139"/>
      <point x="177" y="200"/>
      <point x="177" y="283" type="curve" smooth="yes"/>
      <point x="177" y="333"/>
      <point x="178" y="371"/>
      <point x="179" y="401" type="curve"/>
      <point x="203" y="404"/>
      <point x="230" y="407"/>
      <point x="264" y="407" type="curve" smooth="yes"/>
      <point x="317" y="407"/>
      <point x="372" y="405"/>
      <point x="399" y="402" type="curve"/>
      <point x="269" y="290" type="line" smooth="yes"/>
      <point x="245" y="271"/>
      <point x="231" y="252"/>
      <point x="228" y="235" type="curve"/>
      <point x="228" y="224"/>
      <point x="259" y="207"/>
      <point x="279" y="207" type="curve"/>
      <point x="296" y="232"/>
      <point x="321" y="252"/>
      <point x="339" y="252" type="curve"/>
      <point x="372" y="236"/>
      <point x="391" y="202"/>
      <point x="391" y="159" type="curve" smooth="yes"/>
      <point x="391" y="99"/>
      <point x="355" y="64"/>
      <point x="291" y="64" type="curve" smooth="yes"/>
    </contour>
  </outline>
</glyph>
<glyph name="thorn" format="1">
  <advance width="505"/>
  <unicode hex="00FE"/>
  <outline>
    <contour>
      <point x="105" y="-180"/>
      <point x="150" y="-174"/>
      <point x="196" y="-160" type="curve"/>
      <point x="189" y="-121"/>
      <point x="184" y="-69"/>
      <point x="181" y="0" type="curve"/>
      <point x="201" y="-6"/>
      <point x="222" y="-9"/>
      <point x="246" y="-9" type="curve" smooth="yes"/>
      <point x="389" y="-9"/>
      <point x="472" y="73"/>
      <point x="472" y="212" type="curve" smooth="yes"/>
      <point x="472" y="344"/>
      <point x="413" y="413"/>
      <point x="310" y="413" type="curve" smooth="yes"/>
      <point x="260" y="413"/>
      <point x="214" y="394"/>
      <point x="180" y="363" type="curve"/>
      <point x="182" y="445"/>
      <point x="185" y="509"/>
      <point x="189" y="547" type="curve"/>
      <point x="137" y="547"/>
      <point x="92" y="543"/>
      <point x="39" y="527" type="curve"/>
      <point x="52" y="466"/>
      <point x="58" y="369"/>
      <point x="58" y="227" type="curve" smooth="yes"/>
      <point x="58" y="57"/>
      <point x="53" y="-101"/>
      <point x="46" y="-180" type="curve"/>
    </contour>
    <contour>
      <point x="219" y="54"/>
      <point x="197" y="64"/>
      <point x="179" y="82" type="curve"/>
      <point x="177" y="120"/>
      <point x="176" y="220"/>
      <point x="178" y="281" type="curve"/>
      <point x="203" y="296"/>
      <point x="235" y="306"/>
      <point x="264" y="306" type="curve"/>
      <point x="310" y="285"/>
      <point x="338" y="239"/>
      <point x="338" y="177" type="curve" smooth="yes"/>
      <point x="338" y="100"/>
      <point x="302" y="54"/>
      <point x="243" y="54" type="curve" smooth="yes"/>
    </contour>
    <contour>
      <point x="253" y="407" type="move" name="top"/>
    </contour>
    <contour>
      <point x="253" y="0" type="move" name="bottom"/>
    </contour>
  </outline>
</glyph>
<glyph name="eng" format="1">
  <advance width="509"/>
  <unicode hex="014B"/>
  <outline>
    <contour>
      <point x="385" y="-111"/>
      <point x="453" y="-63"/>
      <point x="453" y="63" type="curve" smooth="yes"/>
      <point x="453" y="115"/>
      <point x="457" y="232"/>
      <point x="457" y="280" type="curve" smooth="yes"/>
      <point x="457" y="362"/>
      <point x="427" y="418"/>
      <point x="340" y="418" type="curve" smooth="yes"/>
      <point x="288" y="418"/>
      <point x="241" y="394"/>
      <point x="206" y="355" type="curve"/>
      <point x="200" y="392"/>
      <point x="179" y="414"/>
      <point x="136" y="414" type="curve" smooth="yes"/>
      <point x="112" y="414"/>
      <point x="71" y="405"/>
      <point x="39" y="378" type="curve"/>
      <point x="70" y="344"/>
      <point x="78" y="321"/>
      <point x="78" y="213" type="curve" smooth="yes"/>
      <point x="78" y="139"/>
      <point x="75" y="57"/>
      <point x="71" y="0" type="curve"/>
      <point x="94" y="-4"/>
      <point x="132" y="-6"/>
      <point x="157" y="-6" type="curve" smooth="yes"/>
      <point x="179" y="-6"/>
      <point x="204" y="-4"/>
      <point x="223" y="0" type="curve"/>
      <point x="210" y="29"/>
      <point x="203" y="82"/>
      <point x="203" y="150" type="curve" smooth="yes"/>
      <point x="203" y="199"/>
      <point x="205" y="242"/>
      <point x="207" y="277" type="curve"/>
      <point x="223" y="291"/>
      <point x="242" y="297"/>
      <point x="268" y="297" type="curve" smooth="yes"/>
      <point x="311" y="297"/>
      <point x="328" y="275"/>
      <point x="328" y="222" type="curve" smooth="yes"/>
      <point x="328" y="106" type="line" smooth="yes"/>
      <point x="328" y="-44"/>
      <point x="295" y="-96"/>
      <point x="229" y="-154" type="curve"/>
      <point x="248" y="-189" type="line"/>
    </contour>
  </outline>
</glyph>
<glyph name="OE" format="1">
  <advance width="806"/>
  <unicode hex="0152"/>
  <outline>
    <contour>
      <point x="416" y="-6"/>
      <point x="480" y="4"/>
      <point x="564" y="4" type="curve" smooth="yes"/>
      <point x="635" y="4"/>
      <point x="708" y="2"/>
      <point x="758" y="-3" type="curve"/>
      <point x="771" y="18"/>
      <point x="779" y="85"/>
      <point x="779" y="128" type="curve"/>
      <point x="737" y="111"/>
      <point x="669" y="101"/>
      <point x="609" y="101" type="curve" smooth="yes"/>
      <point x="581" y="101"/>
      <point x="552" y="103"/>
      <point x="527" y="108" type="curve"/>
      <point x="526" y="139"/>
      <point x="524" y="188"/>
      <point x="524" y="226" type="curve"/>
      <point x="585" y="226"/>
      <point x="628" y="224"/>
      <point x="723" y="218" type="curve"/>
      <point x="725" y="234"/>
      <point x="727" y="252"/>
      <point x="727" y="266" type="curve" smooth="yes"/>
      <point x="727" y="282"/>
      <point x="725" y="298"/>
      <point x="723" y="313" type="curve"/>
      <point x="683" y="306"/>
      <point x="657" y="302"/>
      <point x="583" y="302" type="curve" smooth="yes"/>
      <point x="564" y="302"/>
      <point x="545" y="302"/>
      <point x="525" y="304" type="curve"/>
      <point x="526" y="342"/>
      <point x="527" y="382"/>
      <point x="530" y="417" type="curve"/>
      <point x="552" y="421"/>
      <point x="579" y="423"/>
      <point x="604" y="423" type="curve" smooth="yes"/>
      <point x="657" y="423"/>
      <point x="717" y="414"/>
      <point x="754" y="396" type="curve"/>
      <point x="767" y="416"/>
      <point x="775" y="484"/>
      <point x="775" y="527" type="curve"/>
      <point x="720" y="522"/>
      <point x="638" y="520"/>
      <point x="559" y="520" type="curve" smooth="yes"/>
      <point x="461" y="520"/>
      <point x="412" y="532"/>
      <point x="322" y="532" type="curve" smooth="yes"/>
      <point x="135" y="532"/>
      <point x="32" y="437"/>
      <point x="32" y="266" type="curve" smooth="yes"/>
      <point x="32" y="105"/>
      <point x="158" y="-6"/>
      <point x="342" y="-6" type="curve" smooth="yes"/>
    </contour>
    <contour>
      <point x="224" y="78"/>
      <point x="167" y="163"/>
      <point x="167" y="248" type="curve" smooth="yes"/>
      <point x="167" y="388"/>
      <point x="232" y="447"/>
      <point x="342" y="447" type="curve" smooth="yes"/>
      <point x="361" y="447"/>
      <point x="379" y="444"/>
      <point x="395" y="439" type="curve"/>
      <point x="398" y="403"/>
      <point x="399" y="356"/>
      <point x="399" y="300" type="curve" smooth="yes"/>
      <point x="399" y="231"/>
      <point x="397" y="149"/>
      <point x="393" y="83" type="curve"/>
      <point x="354" y="72"/>
      <point x="318" y="65"/>
      <point x="294" y="65" type="curve"/>
    </contour>
    <contour>
      <point x="403" y="527" type="move" name="top"/>
    </contour>
    <contour>
      <point x="403" y="0" type="move" name="bottom"/>
    </contour>
  </outline>
</glyph>
<glyph name="florin" format="1">
  <advance width="326"/>
  <unicode hex="0192"/>
  <outline>
    <contour>
      <point x="215" y="-38"/>
      <point x="210" y="119"/>
      <point x="210" y="283" type="curve" smooth="yes"/>
      <point x="210" y="442"/>
      <point x="216" y="481"/>
      <point x="245" y="503" type="curve"/>
      <point x="275" y="498"/>
      <point x="305" y="484"/>
      <point x="359" y="450" type="curve"/>
      <point x="373" y="473"/>
      <point x="388" y="538"/>
      <point x="388" y="571" type="curve"/>
      <point x="356" y="580"/>
      <point x="318" y="585"/>
      <point x="275" y="585" type="curve" smooth="yes"/>
      <point x="147" y="585"/>
      <point x="83" y="482"/>
      <point x="83" y="356" type="curve" smooth="yes"/>
      <point x="83" y="260"/>
      <point x="88" y="175"/>
      <point x="88" y="98" type="curve" smooth="yes"/>
      <point x="88" y="25"/>
      <point x="85" y="-39"/>
      <point x="72" y="-95" type="curve"/>
      <point x="118" y="-108"/>
      <point x="163" y="-114"/>
      <point x="222" y="-114" type="curve"/>
    </contour>
    <component base="uni0335" xOffset="-28" yOffset="70" xScale="0.943"/>
  </outline>
</glyph>
<glyph name="uni0237" format="1">
  <advance width="253"/>
  <unicode hex="0237"/>
  <outline>
    <contour>
      <point x="127" y="-111"/>
      <point x="196" y="-63"/>
      <point x="196" y="63" type="curve" smooth="yes"/>
      <point x="196" y="110"/>
      <point x="193" y="129"/>
      <point x="193" y="172" type="curve" smooth="yes"/>
      <point x="193" y="257"/>
      <point x="195" y="374"/>
      <point x="200" y="417" type="curve"/>
      <point x="147" y="417"/>
      <point x="102" y="413"/>
      <point x="49" y="397" type="curve"/>
      <point x="68" y="367"/>
      <point x="70" y="320"/>
      <point x="70" y="106" type="curve" smooth="yes"/>
      <point x="70" y="-44"/>
      <point x="37" y="-96"/>
      <point x="-29" y="-154" type="curve"/>
      <point x="-9" y="-189" type="line"/>
    </contour>
    <contour>
      <point x="133" y="407" type="move" name="top"/>
    </contour>
    <contour>
      <point x="133" y="0" type="move" name="bottom"/>
    </contour>
  </outline>
</glyph>
<glyph name="gravecomb" format="1">
  <advance width="229"/>
  <unicode hex="0300"/>
  <outline>
    <contour>
      <point x="229" y="494" type="line"/>
      <point x="176" y="517"/>
      <point x="130" y="576"/>
      <point x="126" y="625" type="curve"/>
      <point x="66" y="625"/>
      <point x="22" y="605"/>
      <point x="0" y="568" type="curve"/>
      <point x="44" y="513"/>
      <point x="136" y="471"/>
      <point x="218" y="460" type="curve"/>
    </contour>
    <contour>
      <point x="114" y="608" type="move" name="top"/>
    </contour>
    <contour>
      <point x="123" y="407" type="move" name="_top"/>
    </contour>
  </outline>
</glyph>
<glyph name="tildecomb" format="1">
  <advance width="295"/>
  <unicode hex="0303"/>
  <outline>
    <contour>
      <point x="65" y="605"/>
      <point x="265" y="349"/>
      <point x="293" y="587" type="curve"/>
      <point x="262" y="599" type="line"/>
      <point x="243" y="499"/>
      <point x="43" y="755"/>
      <point x="15" y="517" type="curve"/>
      <point x="45" y="505" type="line"/>
    </contour>
    <contour>
      <point x="154" y="607" type="move" name="top"/>
    </contour>
    <contour>
      <point x="154" y="407" type="move" name="_top"/>
    </contour>
  </outline>
</glyph>
<glyph name="uni0307" format="1">
  <advance width="230"/>
  <unicode hex="0307"/>
  <outline>
    <contour>
      <point x="146" y="483"/>
      <point x="174" y="511"/>
      <point x="200" y="542" type="curve"/>
      <point x="169" y="568"/>
      <point x="141" y="596"/>
      <point x="115" y="627" type="curve"/>
      <point x="84" y="601"/>
      <point x="56" y="573"/>
      <point x="30" y="542" type="curve"/>
      <point x="61" y="516"/>
      <point x="89" y="488"/>
      <point x="115" y="457" type="curve"/>
    </contour>
    <contour>
      <point x="115" y="607" type="move" name="top"/>
    </contour>
    <contour>
      <point x="115" y="407" type="move" name="_top"/>
    </contour>
  </outline>
</glyph>
<glyph name="uni030A" format="1">
  <advance width="251"/>
  <unicode hex="030A"/>
  <outline>
    <contour>
      <point x="179" y="455"/>
      <point x="225" y="495"/>
      <point x="225" y="551" type="curve" smooth="yes"/>
      <point x="225" y="604"/>
      <point x="189" y="639"/>
      <point x="132" y="639" type="curve" smooth="yes"/>
      <point x="71" y="639"/>
      <point x="26" y="599"/>
      <point x="26" y="542" type="curve" smooth="yes"/>
      <point x="26" y="490"/>
      <point x="63" y="455"/>
      <point x="116" y="455" type="curve" smooth="yes"/>
    </contour>
    <contour>
      <point x="107" y="503"/>
      <point x="96" y="520"/>
      <point x="96" y="545" type="curve" smooth="yes"/>
      <point x="96" y="573"/>
      <point x="109" y="591"/>
      <point x="129" y="591" type="curve"/>
      <point x="146" y="584"/>
      <point x="155" y="568"/>
      <point x="155" y="545" type="curve" smooth="yes"/>
      <point x="155" y="519"/>
      <point x="144" y="503"/>
      <point x="125" y="503" type="curve" smooth="yes"/>
    </contour>
    <contour>
      <point x="126" y="645" type="move" name="top"/>
    </contour>
    <contour>
      <point x="126" y="407" type="move" name="_top"/>
    </contour>
  </outline>
</glyph>
<glyph name="uni030C" format="1">
  <advance width="294"/>
  <unicode hex="030C"/>
  <outline>
    <contour>
      <point x="134" y="477"/>
      <point x="173" y="480"/>
      <point x="204" y="490" type="curve"/>
      <point x="228" y="525"/>
      <point x="265" y="575"/>
      <point x="294" y="608" type="curve"/>
      <point x="259" y="614"/>
      <point x="241" y="616"/>
      <point x="214" y="616" type="curve"/>
      <point x="167" y="543" type="line"/>
      <point x="116" y="616" type="line"/>
      <point x="71" y="616"/>
      <point x="32" y="612"/>
      <point x="0" y="602" type="curve"/>
      <point x="19" y="583"/>
      <point x="65" y="519"/>
      <point x="89" y="477" type="curve"/>
    </contour>
    <contour>
      <point x="147" y="616" type="move" name="top"/>
    </contour>
    <contour>
      <point x="145" y="407" type="move" name="_top"/>
    </contour>
  </outline>
</glyph>
<glyph name="uni0327" format="1">
  <advance width="211"/>
  <unicode hex="0327"/>
  <outline>
    <contour>
      <point x="175" y="-219"/>
      <point x="211" y="-190"/>
      <point x="211" y="-140" type="curve" smooth="yes"/>
      <point x="211" y="-91"/>
      <point x="173" y="-54"/>
      <point x="113" y="-41" type="curve"/>
      <point x="122" y="14" type="line"/>
      <point x="70" y="14" type="line"/>
      <point x="54" y="-50" type="line"/>
      <point x="99" y="-60"/>
      <point x="124" y="-81"/>
      <point x="124" y="-110" type="curve" smooth="yes"/>
      <point x="124" y="-136"/>
      <point x="104" y="-152"/>
      <point x="73" y="-152" type="curve" smooth="yes"/>
      <point x="52" y="-152"/>
      <point x="29" y="-144"/>
      <point x="12" y="-133" type="curve"/>
      <point x="-1" y="-170" type="line"/>
      <point x="24" y="-199"/>
      <point x="69" y="-219"/>
      <point x="114" y="-219" type="curve" smooth="yes"/>
    </contour>
    <contour>
      <point x="94" y="0" type="move" name="_bottom"/>
    </contour>
  </outline>
</glyph>
<glyph name="uni0328" format="1">
  <advance width="221"/>
  <unicode hex="0328"/>
  <outline>
    <contour>
      <point x="148" y="-211"/>
      <point x="195" y="-187"/>
      <point x="221" y="-152" type="curve"/>
      <point x="208" y="-114" type="line"/>
      <point x="190" y="-130"/>
      <point x="166" y="-140"/>
      <point x="144" y="-140" type="curve" smooth="yes"/>
      <point x="110" y="-140"/>
      <point x="89" y="-117"/>
      <point x="89" y="-79" type="curve" smooth="yes"/>
      <point x="89" y="-41"/>
      <point x="115" y="-13"/>
      <point x="161" y="0" type="curve"/>
      <point x="65" y="0"/>
      <point x="1" y="-47"/>
      <point x="0" y="-118" type="curve" smooth="yes"/>
      <point x="0" y="-177"/>
      <point x="38" y="-211"/>
      <point x="102" y="-211" type="curve" smooth="yes"/>
    </contour>
    <contour>
      <point x="161" y="0" type="move" name="_ogonek"/>
    </contour>
  </outline>
</glyph>
<glyph name="uni0335" format="1">
  <advance width="405"/>
  <unicode hex="0335"/>
  <outline>
    <contour>
      <point x="84" y="222"/>
      <point x="114" y="226"/>
      <point x="201" y="226" type="curve" smooth="yes"/>
      <point x="257" y="226"/>
      <point x="329" y="223"/>
      <point x="367" y="218" type="curve"/>
      <point x="369" y="234"/>
      <point x="371" y="252"/>
      <point x="371" y="266" type="curve" smooth="yes"/>
      <point x="371" y="282"/>
      <point x="369" y="298"/>
      <point x="367" y="313" type="curve"/>
      <point x="321" y="306"/>
      <point x="290" y="302"/>
      <point x="204" y="302" type="curve" smooth="yes"/>
      <point x="147" y="302"/>
      <point x="75" y="305"/>
      <point x="38" y="310" type="curve"/>
      <point x="35" y="294"/>
      <point x="33" y="277"/>
      <point x="33" y="262" type="curve" smooth="yes"/>
      <point x="33" y="247"/>
      <point x="35" y="230"/>
      <point x="38" y="215" type="curve"/>
    </contour>
    <contour>
      <point x="203" y="264" type="move" name="_center"/>
    </contour>
  </outline>
</glyph>
<glyph name="uni0337" format="1">
  <advance width="356"/>
  <unicode hex="0337"/>
  <outline>
    <contour>
      <point x="107" y="181"/>
      <point x="130" y="197"/>
      <point x="196" y="231" type="curve" smooth="yes"/>
      <point x="239" y="253"/>
      <point x="296" y="278"/>
      <point x="326" y="288" type="curve"/>
      <point x="323" y="306"/>
      <point x="296" y="359"/>
      <point x="283" y="373" type="curve"/>
      <point x="249" y="348"/>
      <point x="227" y="332"/>
      <point x="161" y="298" type="curve" smooth="yes"/>
      <point x="117" y="276"/>
      <point x="60" y="251"/>
      <point x="30" y="241" type="curve"/>
      <point x="34" y="223"/>
      <point x="60" y="170"/>
      <point x="74" y="156" type="curve"/>
    </contour>
    <contour>
      <point x="178" y="264" type="move" name="_center"/>
    </contour>
  </outline>
</glyph>
<glyph name="uni0394" format="1">
  <advance width="545"/>
  <unicode hex="0394"/>
  <outline>
    <contour>
      <point x="94" y="3"/>
      <point x="183" y="5"/>
      <point x="272" y="5" type="curve" smooth="yes"/>
      <point x="362" y="5"/>
      <point x="452" y="3"/>
      <point x="541" y="0" type="curve"/>
      <point x="503" y="78"/>
      <point x="378" y="403"/>
      <point x="337" y="529" type="curve"/>
      <point x="317" y="532"/>
      <point x="296" y="534"/>
      <point x="274" y="534" type="curve" smooth="yes"/>
      <point x="253" y="534"/>
      <point x="232" y="532"/>
      <point x="208" y="529" type="curve"/>
      <point x="169" y="411"/>
      <point x="44" y="83"/>
      <point x="3" y="0" type="curve"/>
    </contour>
    <contour>
      <point x="207" y="91"/>
      <point x="161" y="92"/>
      <point x="127" y="94" type="curve"/>
      <point x="161" y="188"/>
      <point x="210" y="316"/>
      <point x="244" y="398" type="curve"/>
      <point x="277" y="324"/>
      <point x="328" y="189"/>
      <point x="363" y="92" type="curve"/>
      <point x="337" y="91"/>
      <point x="307" y="91"/>
      <point x="273" y="91" type="curve" smooth="yes"/>
    </contour>
  </outline>
</glyph>
<glyph name="pi" format="1">
  <advance width="567"/>
  <unicode hex="03C0"/>
  <outline>
    <contour>
      <point x="187" y="-6"/>
      <point x="210" y="-4"/>
      <point x="233" y="-1" type="curve"/>
      <point x="222" y="21"/>
      <point x="217" y="79"/>
      <point x="217" y="176" type="curve" smooth="yes"/>
      <point x="217" y="211"/>
      <point x="218" y="253"/>
      <point x="220" y="292" type="curve"/>
      <point x="347" y="292" type="line"/>
      <point x="348" y="271"/>
      <point x="348" y="251"/>
      <point x="348" y="226" type="curve" smooth="yes"/>
      <point x="348" y="152"/>
      <point x="342" y="55"/>
      <point x="338" y="-1" type="curve"/>
      <point x="367" y="-4"/>
      <point x="394" y="-6"/>
      <point x="417" y="-6" type="curve" smooth="yes"/>
      <point x="439" y="-6"/>
      <point x="462" y="-4"/>
      <point x="485" y="-1" type="curve"/>
      <point x="474" y="21"/>
      <point x="469" y="79"/>
      <point x="469" y="176" type="curve" smooth="yes"/>
      <point x="469" y="211"/>
      <point x="470" y="254"/>
      <point x="472" y="292" type="curve"/>
      <point x="510" y="287" type="line"/>
      <point x="533" y="327"/>
      <point x="549" y="377"/>
      <point x="549" y="426" type="curve"/>
      <point x="502" y="416"/>
      <point x="396" y="407"/>
      <point x="302" y="407" type="curve" smooth="yes"/>
      <point x="221" y="407"/>
      <point x="143" y="408"/>
      <point x="56" y="412" type="curve"/>
      <point x="32" y="372"/>
      <point x="17" y="321"/>
      <point x="17" y="273" type="curve"/>
      <point x="35" y="277"/>
      <point x="62" y="281"/>
      <point x="94" y="284" type="curve"/>
      <point x="96" y="266"/>
      <point x="96" y="247"/>
      <point x="96" y="226" type="curve" smooth="yes"/>
      <point x="96" y="152"/>
      <point x="90" y="55"/>
      <point x="85" y="-1" type="curve"/>
      <point x="114" y="-4"/>
      <point x="142" y="-6"/>
      <point x="164" y="-6" type="curve" smooth="yes"/>
    </contour>
  </outline>
</glyph>
<glyph name="endash" format="1">
  <advance width="545"/>
  <unicode hex="2013"/>
  <outline>
    <contour>
      <point x="101" y="131"/>
      <point x="193" y="140"/>
      <point x="280" y="140" type="curve" smooth="yes"/>
      <point x="353" y="140"/>
      <point x="425" y="139"/>
      <point x="506" y="135" type="curve"/>
      <point x="506" y="184"/>
      <point x="500" y="226"/>
      <point x="479" y="275" type="curve"/>
      <point x="442" y="265"/>
      <point x="350" y="256"/>
      <point x="264" y="256" type="curve" smooth="yes"/>
      <point x="190" y="256"/>
      <point x="119" y="257"/>
      <point x="38" y="261" type="curve"/>
      <point x="38" y="212"/>
      <point x="44" y="170"/>
      <point x="65" y="121" type="curve"/>
    </contour>
  </outline>
</glyph>
<glyph name="emdash" format="1">
  <advance width="763"/>
  <unicode hex="2014"/>
  <outline>
    <contour>
      <point x="123" y="131"/>
      <point x="261" y="140"/>
      <point x="393" y="140" type="curve" smooth="yes"/>
      <point x="499" y="140"/>
      <point x="605" y="139"/>
      <point x="724" y="135" type="curve"/>
      <point x="724" y="184"/>
      <point x="717" y="226"/>
      <point x="693" y="275" type="curve"/>
      <point x="637" y="265"/>
      <point x="498" y="256"/>
      <point x="368" y="256" type="curve" smooth="yes"/>
      <point x="261" y="256"/>
      <point x="156" y="257"/>
      <point x="38" y="261" type="curve"/>
      <point x="38" y="212"/>
      <point x="45" y="170"/>
      <point x="68" y="121" type="curve"/>
    </contour>
  </outline>
</glyph>
<glyph name="bullet" format="1">
  <advance width="365"/>
  <unicode hex="2022"/>
  <outline>
    <contour>
      <point x="242" y="173"/>
      <point x="291" y="222"/>
      <point x="340" y="281" type="curve"/>
      <point x="281" y="330"/>
      <point x="232" y="379"/>
      <point x="183" y="439" type="curve"/>
      <point x="123" y="390"/>
      <point x="74" y="341"/>
      <point x="25" y="281" type="curve"/>
      <point x="85" y="232"/>
      <point x="134" y="183"/>
      <point x="183" y="124" type="curve"/>
    </contour>
  </outline>
</glyph>
<glyph name="guilsinglleft" format="1">
  <advance width="278"/>
  <unicode hex="2039"/>
  <outline>
    <contour>
      <point x="205" y="54"/>
      <point x="226" y="78"/>
      <point x="247" y="112" type="curve"/>
      <point x="137" y="222" type="line"/>
      <point x="247" y="334" type="line"/>
      <point x="226" y="368"/>
      <point x="205" y="391"/>
      <point x="165" y="422" type="curve"/>
      <point x="121" y="358"/>
      <point x="78" y="307"/>
      <point x="22" y="243" type="curve"/>
      <point x="22" y="203" type="line"/>
      <point x="78" y="139"/>
      <point x="121" y="88"/>
      <point x="165" y="24" type="curve"/>
    </contour>
  </outline>
</glyph>
<glyph name="fraction" format="1">
  <advance width="79"/>
  <unicode hex="2044"/>
  <outline>
    <contour>
      <point x="-56" y="-75"/>
      <point x="-35" y="-71"/>
      <point x="-17" y="-66" type="curve"/>
      <point x="46" y="145"/>
      <point x="118" y="356"/>
      <point x="201" y="567" type="curve"/>
      <point x="184" y="572"/>
      <point x="169" y="576"/>
      <point x="154" y="576" type="curve" smooth="yes"/>
      <point x="135" y="576"/>
      <point x="114" y="572"/>
      <point x="96" y="567" type="curve"/>
      <point x="33" y="356"/>
      <point x="-39" y="145"/>
      <point x="-122" y="-66" type="curve"/>
      <point x="-105" y="-71"/>
      <point x="-89" y="-75"/>
      <point x="-75" y="-75" type="curve" smooth="yes"/>
    </contour>
  </outline>
</glyph>
<glyph name="Euro" format="1">
  <advance width="518"/>
  <unicode hex="20AC"/>
  <outline>
    <contour>
      <point x="352" y="-11"/>
      <point x="432" y="25"/>
      <point x="476" y="78" type="curve"/>
      <point x="460" y="141" type="line"/>
      <point x="426" y="114"/>
      <point x="367" y="97"/>
      <point x="314" y="97" type="curve" smooth="yes"/>
      <point x="228" y="97"/>
      <point x="185" y="153"/>
      <point x="185" y="269" type="curve" smooth="yes"/>
      <point x="185" y="354"/>
      <point x="227" y="436"/>
      <point x="279" y="454" type="curve"/>
      <point x="310" y="454"/>
      <point x="370" y="420"/>
      <point x="416" y="375" type="curve"/>
      <point x="439" y="396"/>
      <point x="463" y="465"/>
      <point x="463" y="509" type="curve"/>
      <point x="428" y="525"/>
      <point x="380" y="533"/>
      <point x="323" y="533" type="curve" smooth="yes"/>
      <point x="164" y="533"/>
      <point x="53" y="413"/>
      <point x="53" y="241" type="curve" smooth="yes"/>
      <point x="53" y="79"/>
      <point x="132" y="-11"/>
      <point x="276" y="-11" type="curve" smooth="yes"/>
    </contour>
    <component base="uni0335" xOffset="-28" yOffset="75" xScale="0.96" yScale="0.96"/>
    <component base="uni0335" xOffset="-31" yOffset="-55" xScale="0.96" yScale="0.96"/>
    <contour>
      <point x="284" y="527" type="move" name="top"/>
    </contour>
    <contour>
      <point x="266" y="0" type="move" name="bottom"/>
    </contour>
  </outline>
</glyph>
<glyph name="partialdiff" format="1">
  <advance width="542"/>
  <unicode hex="2202"/>
  <outline>
    <contour>
      <point x="383" y="-11"/>
      <point x="493" y="128"/>
      <point x="493" y="311" type="curve" smooth="yes"/>
      <point x="493" y="480"/>
      <point x="392" y="573"/>
      <point x="202" y="573" type="curve"/>
      <point x="183" y="547"/>
      <point x="180" y="526"/>
      <point x="180" y="499" type="curve"/>
      <point x="303" y="499"/>
      <point x="362" y="434"/>
      <point x="364" y="313" type="curve"/>
      <point x="329" y="342"/>
      <point x="287" y="357"/>
      <point x="240" y="357" type="curve" smooth="yes"/>
      <point x="121" y="357"/>
      <point x="28" y="268"/>
      <point x="28" y="148" type="curve" smooth="yes"/>
      <point x="28" y="53"/>
      <point x="100" y="-11"/>
      <point x="213" y="-11" type="curve" smooth="yes"/>
    </contour>
    <contour>
      <point x="188" y="80"/>
      <point x="163" y="108"/>
      <point x="163" y="154" type="curve" smooth="yes"/>
      <point x="163" y="222"/>
      <point x="205" y="288"/>
      <point x="278" y="288" type="curve"/>
      <point x="309" y="278"/>
      <point x="336" y="262"/>
      <point x="357" y="240" type="curve"/>
      <point x="341" y="162"/>
      <point x="298" y="80"/>
      <point x="229" y="80" type="curve" smooth="yes"/>
    </contour>
  </outline>
</glyph>
<glyph name="emptyset" format="1">
  <advance width="595"/>
  <unicode hex="2205"/>
  <outline>
    <contour>
      <point x="450" y="-11"/>
      <point x="570" y="109"/>
      <point x="570" y="279" type="curve" smooth="yes"/>
      <point x="570" y="432"/>
      <point x="471" y="534"/>
      <point x="326" y="534" type="curve" smooth="yes"/>
      <point x="149" y="534"/>
      <point x="25" y="417"/>
      <point x="25" y="251" type="curve" smooth="yes"/>
      <point x="25" y="95"/>
      <point x="127" y="-11"/>
      <point x="278" y="-11" type="curve" smooth="yes"/>
    </contour>
    <contour>
      <point x="196" y="109"/>
      <point x="135" y="168"/>
      <point x="135" y="255" type="curve" smooth="yes"/>
      <point x="135" y="348"/>
      <point x="209" y="413"/>
      <point x="315" y="413" type="curve" smooth="yes"/>
      <point x="401" y="413"/>
      <point x="461" y="356"/>
      <point x="461" y="271" type="curve" smooth="yes"/>
      <point x="461" y="175"/>
      <point x="389" y="109"/>
      <point x="286" y="109" type="curve" smooth="yes"/>
    </contour>
    <component base="fraction" xOffset="256" yOffset="11"/>
  </outline>
</glyph>
<glyph name="product" format="1">
  <advance width="567"/>
  <unicode hex="220F"/>
  <outline>
    <contour>
      <point x="62" y="418"/>
      <point x="168" y="427"/>
      <point x="263" y="427" type="curve" smooth="yes"/>
      <point x="343" y="427"/>
      <point x="422" y="426"/>
      <point x="510" y="422" type="curve"/>
      <point x="533" y="462"/>
      <point x="549" y="512"/>
      <point x="549" y="561" type="curve"/>
      <point x="502" y="551"/>
      <point x="396" y="542"/>
      <point x="302" y="542" type="curve" smooth="yes"/>
      <point x="221" y="542"/>
      <point x="143" y="543"/>
      <point x="56" y="547" type="curve"/>
      <point x="32" y="507"/>
      <point x="17" y="456"/>
      <point x="17" y="408" type="curve"/>
    </contour>
    <component base="I" xOffset="31"/>
    <component base="I" xOffset="283"/>
  </outline>
</glyph>
<glyph name="summation" format="1">
  <advance width="536"/>
  <unicode hex="2211"/>
  <outline>
    <contour>
      <point x="467" y="38"/>
      <point x="480" y="93"/>
      <point x="478" y="141" type="curve"/>
      <point x="427" y="130"/>
      <point x="345" y="122"/>
      <point x="277" y="122" type="curve" smooth="yes"/>
      <point x="248" y="122"/>
      <point x="227" y="123"/>
      <point x="173" y="127" type="curve"/>
      <point x="407" y="288" type="line"/>
      <point x="354" y="326"/>
      <point x="309" y="368"/>
      <point x="265" y="420" type="curve"/>
      <point x="339" y="420"/>
      <point x="391" y="419"/>
      <point x="461" y="415" type="curve"/>
      <point x="485" y="458"/>
      <point x="498" y="513"/>
      <point x="496" y="561" type="curve"/>
      <point x="444" y="550"/>
      <point x="363" y="542"/>
      <point x="295" y="542" type="curve" smooth="yes"/>
      <point x="217" y="542"/>
      <point x="167" y="543"/>
      <point x="93" y="547" type="curve"/>
      <point x="70" y="504"/>
      <point x="56" y="449"/>
      <point x="59" y="401" type="curve"/>
      <point x="98" y="376"/>
      <point x="136" y="342"/>
      <point x="219" y="248" type="curve"/>
      <point x="148" y="199"/>
      <point x="71" y="135"/>
      <point x="50" y="101" type="curve"/>
      <point x="42" y="72"/>
      <point x="38" y="32"/>
      <point x="40" y="0" type="curve"/>
      <point x="241" y="0" type="line" smooth="yes"/>
      <point x="318" y="0"/>
      <point x="370" y="-1"/>
      <point x="443" y="-5" type="curve"/>
    </contour>
  </outline>
</glyph>
<glyph name="uni2219" format="1">
  <advance width="361"/>
  <unicode hex="2219"/>
  <outline>
    <contour>
      <point x="238" y="160"/>
      <point x="286" y="208"/>
      <point x="333" y="265" type="curve"/>
      <point x="276" y="313"/>
      <point x="228" y="360"/>
      <point x="181" y="419" type="curve"/>
      <point x="122" y="371"/>
      <point x="75" y="323"/>
      <point x="27" y="265" type="curve"/>
      <point x="85" y="218"/>
      <point x="133" y="170"/>
      <point x="181" y="112" type="curve"/>
    </contour>
  </outline>
</glyph>
<glyph name="fi" format="1">
  <advance width="528"/>
  <unicode hex="FB01"/>
  <outline>
    <contour>
      <point x="173" y="-85"/>
      <point x="208" y="-31"/>
      <point x="208" y="63" type="curve" smooth="yes"/>
      <point x="208" y="108"/>
      <point x="201" y="177"/>
      <point x="201" y="283" type="curve" smooth="yes"/>
      <point x="201" y="326" type="line"/>
      <point x="347" y="326" type="line"/>
      <point x="348" y="309"/>
      <point x="348" y="290"/>
      <point x="348" y="272" type="curve" smooth="yes"/>
      <point x="348" y="208"/>
      <point x="344" y="144"/>
      <point x="344" y="73" type="curve" smooth="yes"/>
      <point x="344" y="10"/>
      <point x="365" y="-9"/>
      <point x="417" y="-9" type="curve" smooth="yes"/>
      <point x="440" y="-9"/>
      <point x="476" y="0"/>
      <point x="506" y="27" type="curve"/>
      <point x="475" y="61"/>
      <point x="467" y="84"/>
      <point x="467" y="192" type="curve" smooth="yes"/>
      <point x="467" y="294"/>
      <point x="472" y="379"/>
      <point x="479" y="417" type="curve"/>
      <point x="430" y="417"/>
      <point x="388" y="413"/>
      <point x="339" y="397" type="curve"/>
      <point x="203" y="397" type="line"/>
      <point x="207" y="464"/>
      <point x="216" y="488"/>
      <point x="236" y="503" type="curve"/>
      <point x="274" y="497"/>
      <point x="312" y="480"/>
      <point x="381" y="440" type="curve"/>
      <point x="398" y="463"/>
      <point x="419" y="528"/>
      <point x="419" y="561" type="curve"/>
      <point x="375" y="577"/>
      <point x="324" y="585"/>
      <point x="266" y="585" type="curve" smooth="yes"/>
      <point x="167" y="585"/>
      <point x="93" y="516"/>
      <point x="74" y="410" type="curve"/>
      <point x="53" y="394"/>
      <point x="31" y="381"/>
      <point x="6" y="368" type="curve"/>
      <point x="6" y="332"/>
      <point x="16" y="324"/>
      <point x="74" y="323" type="curve"/>
      <point x="89" y="3"/>
      <point x="83" y="-58"/>
      <point x="34" y="-130" type="curve"/>
      <point x="67" y="-159" type="line"/>
    </contour>
    <contour>
      <point x="462" y="0" type="move" name="ogonek"/>
    </contour>
    <contour>
      <point x="152" y="0" type="move" name="bottom"/>
    </contour>
    <contour>
      <point x="152" y="407" type="move" name="top"/>
    </contour>
  </outline>
</glyph>
<glyph name="fl" format="1">
  <advance width="528"/>
  <unicode hex="FB02"/>
  <outline>
    <contour>
      <point x="173" y="-85"/>
      <point x="208" y="-31"/>
      <point x="208" y="63" type="curve" smooth="yes"/>
      <point x="208" y="108"/>
      <point x="201" y="177"/>
      <point x="201" y="283" type="curve" smooth="yes"/>
      <point x="201" y="326" type="line"/>
      <point x="240" y="325"/>
      <point x="268" y="321"/>
      <point x="291" y="314" type="curve"/>
      <point x="303" y="344"/>
      <point x="308" y="369"/>
      <point x="308" y="404" type="curve"/>
      <point x="285" y="400"/>
      <point x="248" y="397"/>
      <point x="203" y="396" type="curve"/>
      <point x="207" y="464"/>
      <point x="216" y="488"/>
      <point x="236" y="503" type="curve"/>
      <point x="266" y="499"/>
      <point x="296" y="487"/>
      <point x="340" y="464" type="curve"/>
      <point x="345" y="422"/>
      <point x="348" y="367"/>
      <point x="348" y="297" type="curve" smooth="yes"/>
      <point x="348" y="208"/>
      <point x="344" y="144"/>
      <point x="344" y="73" type="curve" smooth="yes"/>
      <point x="344" y="10"/>
      <point x="365" y="-9"/>
      <point x="417" y="-9" type="curve" smooth="yes"/>
      <point x="440" y="-9"/>
      <point x="476" y="0"/>
      <point x="506" y="27" type="curve"/>
      <point x="475" y="61"/>
      <point x="467" y="84"/>
      <point x="467" y="192" type="curve" smooth="yes"/>
      <point x="467" y="356"/>
      <point x="472" y="485"/>
      <point x="479" y="547" type="curve"/>
      <point x="419" y="572"/>
      <point x="347" y="585"/>
      <point x="268" y="585" type="curve" smooth="yes"/>
      <point x="165" y="585"/>
      <point x="93" y="516"/>
      <point x="74" y="410" type="curve"/>
      <point x="53" y="394"/>
      <point x="31" y="381"/>
      <point x="6" y="368" type="curve"/>
      <point x="6" y="332"/>
      <point x="16" y="324"/>
      <point x="74" y="323" type="curve"/>
      <point x="89" y="3"/>
      <point x="83" y="-58"/>
      <point x="34" y="-130" type="curve"/>
      <point x="67" y="-159" type="line"/>
    </contour>
  </outline>
</glyph>
<glyph name="f_j" format="1">
  <advance width="528"/>
  <outline>
    <contour>
      <point x="417" y="-111"/>
      <point x="485" y="-63"/>
      <point x="485" y="63" type="curve" smooth="yes"/>
      <point x="485" y="110"/>
      <point x="482" y="129"/>
      <point x="482" y="172" type="curve" smooth="yes"/>
      <point x="482" y="257"/>
      <point x="484" y="374"/>
      <point x="489" y="417" type="curve"/>
      <point x="436" y="417"/>
      <point x="391" y="413"/>
      <point x="339" y="397" type="curve"/>
      <point x="203" y="397" type="line"/>
      <point x="207" y="464"/>
      <point x="216" y="488"/>
      <point x="236" y="503" type="curve"/>
      <point x="274" y="497"/>
      <point x="312" y="480"/>
      <point x="381" y="440" type="curve"/>
      <point x="398" y="463"/>
      <point x="419" y="528"/>
      <point x="419" y="561" type="curve"/>
      <point x="375" y="577"/>
      <point x="324" y="585"/>
      <point x="266" y="585" type="curve" smooth="yes"/>
      <point x="167" y="585"/>
      <point x="93" y="516"/>
      <point x="74" y="410" type="curve"/>
      <point x="53" y="394"/>
      <point x="31" y="381"/>
      <point x="6" y="368" type="curve"/>
      <point x="6" y="332"/>
      <point x="16" y="324"/>
      <point x="74" y="323" type="curve"/>
      <point x="89" y="3"/>
      <point x="83" y="-58"/>
      <point x="34" y="-130" type="curve"/>
      <point x="67" y="-159" type="line"/>
      <point x="173" y="-85"/>
      <point x="208" y="-31"/>
      <point x="208" y="63" type="curve" smooth="yes"/>
      <point x="208" y="108"/>
      <point x="201" y="177"/>
      <point x="201" y="283" type="curve" smooth="yes"/>
      <point x="201" y="326" type="line"/>
      <point x="356" y="326" type="line"/>
      <point x="359" y="285"/>
      <point x="360" y="218"/>
      <point x="360" y="106" type="curve" smooth="yes"/>
      <point x="360" y="-44"/>
      <point x="327" y="-96"/>
      <point x="261" y="-154" type="curve"/>
      <point x="280" y="-189" type="line"/>
    </contour>
  </outline>
</glyph>
<glyph name="f_t" format="1">
  <advance width="605"/>
  <outline>
    <contour>
      <point x="174" y="-85"/>
      <point x="210" y="-29"/>
      <point x="210" y="63" type="curve" smooth="yes"/>
      <point x="210" y="102"/>
      <point x="203" y="173"/>
      <point x="203" y="323" type="curve"/>
      <point x="364" y="323" type="line"/>
      <point x="365" y="301"/>
      <point x="366" y="275"/>
      <point x="366" y="264" type="curve" smooth="yes"/>
      <point x="366" y="196"/>
      <point x="362" y="147"/>
      <point x="362" y="93" type="curve" smooth="yes"/>
      <point x="362" y="17"/>
      <point x="385" y="-9"/>
      <point x="449" y="-9" type="curve" smooth="yes"/>
      <point x="502" y="-9"/>
      <point x="558" y="16"/>
      <point x="587" y="53" type="curve"/>
      <point x="581" y="99" type="line"/>
      <point x="561" y="94"/>
      <point x="534" y="91"/>
      <point x="502" y="90" type="curve"/>
      <point x="496" y="131"/>
      <point x="492" y="188"/>
      <point x="492" y="252" type="curve" smooth="yes"/>
      <point x="492" y="277"/>
      <point x="493" y="300"/>
      <point x="495" y="323" type="curve"/>
      <point x="532" y="322"/>
      <point x="559" y="318"/>
      <point x="578" y="311" type="curve"/>
      <point x="590" y="342"/>
      <point x="595" y="368"/>
      <point x="595" y="404" type="curve"/>
      <point x="573" y="400"/>
      <point x="538" y="397"/>
      <point x="497" y="396" type="curve"/>
      <point x="496" y="416"/>
      <point x="494" y="442"/>
      <point x="492" y="466" type="curve"/>
      <point x="433" y="469" type="line"/>
      <point x="393" y="413"/>
      <point x="343" y="397"/>
      <point x="297" y="397" type="curve" smooth="yes"/>
      <point x="205" y="397" type="line"/>
      <point x="209" y="456"/>
      <point x="217" y="480"/>
      <point x="238" y="496" type="curve"/>
      <point x="268" y="490"/>
      <point x="295" y="478"/>
      <point x="352" y="445" type="curve"/>
      <point x="365" y="467"/>
      <point x="381" y="536"/>
      <point x="381" y="571" type="curve"/>
      <point x="346" y="580"/>
      <point x="307" y="585"/>
      <point x="265" y="585" type="curve" smooth="yes"/>
      <point x="165" y="585"/>
      <point x="89" y="517"/>
      <point x="70" y="411" type="curve"/>
      <point x="49" y="396"/>
      <point x="26" y="382"/>
      <point x="0" y="368" type="curve"/>
      <point x="0" y="328"/>
      <point x="11" y="321"/>
      <point x="70" y="320" type="curve"/>
      <point x="85" y="16"/>
      <point x="79" y="-53"/>
      <point x="31" y="-127" type="curve"/>
      <point x="67" y="-159" type="line"/>
    </contour>
  </outline>
</glyph>
<glyph name="five.dnom" format="1">
  <advance width="359"/>
  <outline>
    <contour>
      <point x="249" y="-6"/>
      <point x="294" y="26"/>
      <point x="294" y="84" type="curve" smooth="yes"/>
      <point x="294" y="127"/>
      <point x="257" y="166"/>
      <point x="196" y="166" type="curve" smooth="yes"/>
      <point x="166" y="166"/>
      <point x="138" y="158"/>
      <point x="116" y="143" type="curve"/>
      <point x="119" y="196" type="line"/>
      <point x="206" y="196" type="line" smooth="yes"/>
      <point x="235" y="196"/>
      <point x="252" y="193"/>
      <point x="265" y="187" type="curve"/>
      <point x="279" y="207"/>
      <point x="288" y="244"/>
      <point x="288" y="274" type="curve"/>
      <point x="268" y="270"/>
      <point x="230" y="268"/>
      <point x="187" y="268" type="curve" smooth="yes"/>
      <point x="131" y="268"/>
      <point x="100" y="270"/>
      <point x="87" y="274" type="curve"/>
      <point x="78" y="115" type="line"/>
      <point x="114" y="97" type="line"/>
      <point x="134" y="113"/>
      <point x="157" y="123"/>
      <point x="170" y="123" type="curve"/>
      <point x="193" y="114"/>
      <point x="201" y="101"/>
      <point x="201" y="86" type="curve" smooth="yes"/>
      <point x="201" y="62"/>
      <point x="182" y="48"/>
      <point x="150" y="48" type="curve" smooth="yes"/>
      <point x="116" y="48"/>
      <point x="86" y="60"/>
      <point x="69" y="79" type="curve"/>
      <point x="63" y="59"/>
      <point x="60" y="42"/>
      <point x="60" y="18" type="curve"/>
      <point x="91" y="3"/>
      <point x="126" y="-6"/>
      <point x="165" y="-6" type="curve" smooth="yes"/>
    </contour>
  </outline>
</glyph>
<glyph name="four.dnom" format="1">
  <advance width="359"/>
  <outline>
    <contour>
      <point x="246" y="-3"/>
      <point x="262" y="-2"/>
      <point x="278" y="0" type="curve"/>
      <point x="276" y="15"/>
      <point x="274" y="34"/>
      <point x="274" y="49" type="curve"/>
      <point x="294" y="49" type="line"/>
      <point x="308" y="72"/>
      <point x="314" y="102"/>
      <point x="314" y="131" type="curve"/>
      <point x="303" y="128"/>
      <point x="290" y="126"/>
      <point x="274" y="125" type="curve"/>
      <point x="274" y="179" type="line"/>
      <point x="255" y="181"/>
      <point x="237" y="182"/>
      <point x="222" y="182" type="curve"/>
      <point x="177" y="122" type="line"/>
      <point x="113" y="122" type="line"/>
      <point x="174" y="199"/>
      <point x="222" y="246"/>
      <point x="248" y="268" type="curve"/>
      <point x="214" y="280"/>
      <point x="180" y="284"/>
      <point x="137" y="284" type="curve"/>
      <point x="78" y="199"/>
      <point x="30" y="121"/>
      <point x="30" y="87" type="curve" smooth="yes"/>
      <point x="30" y="65"/>
      <point x="39" y="49"/>
      <point x="54" y="38" type="curve"/>
      <point x="75" y="45"/>
      <point x="111" y="49"/>
      <point x="178" y="49" type="curve"/>
      <point x="178" y="33"/>
      <point x="177" y="16"/>
      <point x="176" y="0" type="curve"/>
      <point x="196" y="-2"/>
      <point x="214" y="-3"/>
      <point x="229" y="-3" type="curve" smooth="yes"/>
    </contour>
  </outline>
</glyph>
<glyph name="nine.dnom" format="1">
  <advance width="360"/>
  <outline>
    <contour>
      <point x="254" y="-6"/>
      <point x="317" y="54"/>
      <point x="317" y="147" type="curve" smooth="yes"/>
      <point x="317" y="227"/>
      <point x="263" y="277"/>
      <point x="177" y="277" type="curve" smooth="yes"/>
      <point x="99" y="277"/>
      <point x="45" y="234"/>
      <point x="45" y="173" type="curve" smooth="yes"/>
      <point x="45" y="121"/>
      <point x="87" y="86"/>
      <point x="149" y="86" type="curve" smooth="yes"/>
      <point x="175" y="86"/>
      <point x="201" y="94"/>
      <point x="224" y="110" type="curve"/>
      <point x="219" y="68"/>
      <point x="193" y="45"/>
      <point x="147" y="45" type="curve" smooth="yes"/>
      <point x="112" y="45"/>
      <point x="79" y="59"/>
      <point x="62" y="79" type="curve"/>
      <point x="53" y="57"/>
      <point x="49" y="36"/>
      <point x="49" y="18" type="curve"/>
      <point x="80" y="1"/>
      <point x="112" y="-6"/>
      <point x="155" y="-6" type="curve" smooth="yes"/>
    </contour>
    <contour>
      <point x="155" y="123"/>
      <point x="138" y="140"/>
      <point x="138" y="166" type="curve" smooth="yes"/>
      <point x="138" y="192"/>
      <point x="154" y="208"/>
      <point x="178" y="208" type="curve" smooth="yes"/>
      <point x="205" y="208"/>
      <point x="221" y="187"/>
      <point x="224" y="146" type="curve"/>
      <point x="212" y="137"/>
      <point x="198" y="129"/>
      <point x="181" y="123" type="curve"/>
    </contour>
  </outline>
</glyph>
<glyph name="one.dnom" format="1">
  <advance width="359"/>
  <outline>
    <contour>
      <point x="221" y="-3"/>
      <point x="239" y="-2"/>
      <point x="255" y="0" type="curve"/>
      <point x="250" y="52"/>
      <point x="248" y="104"/>
      <point x="248" y="157" type="curve" smooth="yes"/>
      <point x="248" y="196"/>
      <point x="249" y="235"/>
      <point x="252" y="274" type="curve"/>
      <point x="233" y="276"/>
      <point x="216" y="277"/>
      <point x="201" y="277" type="curve"/>
      <point x="178" y="258"/>
      <point x="110" y="217"/>
      <point x="69" y="198" type="curve"/>
      <point x="79" y="178"/>
      <point x="88" y="162"/>
      <point x="102" y="142" type="curve"/>
      <point x="159" y="175" type="line"/>
      <point x="159" y="144" type="line" smooth="yes"/>
      <point x="159" y="103"/>
      <point x="157" y="44"/>
      <point x="153" y="0" type="curve"/>
      <point x="173" y="-2"/>
      <point x="191" y="-3"/>
      <point x="206" y="-3" type="curve" smooth="yes"/>
    </contour>
  </outline>
</glyph>
<glyph name="seven.dnom" format="1">
  <advance width="359"/>
  <outline>
    <contour>
      <point x="288" y="174" type="line" smooth="yes"/>
      <point x="304" y="203"/>
      <point x="311" y="227"/>
      <point x="311" y="242" type="curve" smooth="yes"/>
      <point x="311" y="257"/>
      <point x="305" y="274"/>
      <point x="293" y="284" type="curve"/>
      <point x="276" y="275"/>
      <point x="246" y="268"/>
      <point x="182" y="268" type="curve" smooth="yes"/>
      <point x="123" y="268"/>
      <point x="76" y="270"/>
      <point x="54" y="274" type="curve"/>
      <point x="54" y="245"/>
      <point x="63" y="211"/>
      <point x="77" y="187" type="curve"/>
      <point x="89" y="194"/>
      <point x="107" y="196"/>
      <point x="133" y="196" type="curve" smooth="yes"/>
      <point x="222" y="196" type="line"/>
      <point x="155" y="98"/>
      <point x="107" y="39"/>
      <point x="77" y="13" type="curve"/>
      <point x="112" y="1"/>
      <point x="146" y="-3"/>
      <point x="189" y="-3" type="curve"/>
    </contour>
  </outline>
</glyph>
<glyph name="two.dnom" format="1">
  <advance width="359"/>
  <outline>
    <contour>
      <point x="310" y="15"/>
      <point x="315" y="55"/>
      <point x="315" y="83" type="curve"/>
      <point x="288" y="75"/>
      <point x="246" y="69"/>
      <point x="210" y="69" type="curve" smooth="yes"/>
      <point x="200" y="69"/>
      <point x="192" y="69"/>
      <point x="183" y="70" type="curve"/>
      <point x="257" y="104"/>
      <point x="302" y="151"/>
      <point x="302" y="201" type="curve" smooth="yes"/>
      <point x="302" y="247"/>
      <point x="255" y="276"/>
      <point x="184" y="276" type="curve" smooth="yes"/>
      <point x="139" y="276"/>
      <point x="91" y="268"/>
      <point x="56" y="256" type="curve"/>
      <point x="56" y="229"/>
      <point x="68" y="191"/>
      <point x="87" y="169" type="curve"/>
      <point x="119" y="192"/>
      <point x="156" y="209"/>
      <point x="184" y="214" type="curve"/>
      <point x="200" y="214"/>
      <point x="209" y="204"/>
      <point x="209" y="191" type="curve" smooth="yes"/>
      <point x="209" y="151"/>
      <point x="157" y="96"/>
      <point x="54" y="32" type="curve"/>
      <point x="54" y="0" type="line"/>
      <point x="115" y="4"/>
      <point x="266" y="2"/>
      <point x="304" y="-3" type="curve"/>
    </contour>
  </outline>
</glyph>
<glyph name="zero.dnom" format="1">
  <advance width="359"/>
  <outline>
    <contour>
      <point x="265" y="-6"/>
      <point x="331" y="56"/>
      <point x="331" y="145" type="curve" smooth="yes"/>
      <point x="331" y="224"/>
      <point x="276" y="277"/>
      <point x="195" y="277" type="curve" smooth="yes"/>
      <point x="96" y="277"/>
      <point x="27" y="216"/>
      <point x="27" y="130" type="curve" smooth="yes"/>
      <point x="27" y="50"/>
      <point x="84" y="-6"/>
      <point x="168" y="-6" type="curve" smooth="yes"/>
    </contour>
    <contour>
      <point x="145" y="71"/>
      <point x="123" y="101"/>
      <point x="123" y="148" type="curve" smooth="yes"/>
      <point x="123" y="190"/>
      <point x="149" y="225"/>
      <point x="186" y="225" type="curve"/>
      <point x="218" y="217"/>
      <point x="238" y="187"/>
      <point x="238" y="145" type="curve" smooth="yes"/>
      <point x="238" y="99"/>
      <point x="216" y="71"/>
      <point x="178" y="71" type="curve" smooth="yes"/>
    </contour>
  </outline>
</glyph>
